<?xml version="1.0" standalone="no"?>
<!DOCTYPE svg PUBLIC "-//W3C//DTD SVG 1.1//EN" "http://www.w3.org/Graphics/SVG/1.1/DTD/svg11.dtd" >
<svg xmlns="http://www.w3.org/2000/svg">
<metadata>
This is a custom SVG webfont generated by Font Squirrel.
Copyright   : c Copyright 19941997 Galapagos Design Group Inc  All rights reserved
Designer    : Dennis Pasternak
Foundry     : Galpagos Design Group
Foundry URL : httpwwwgalapagosdesigncom
</metadata>
<defs>
<font id="MaiandraGDRegular" horiz-adv-x="1024" >
<font-face units-per-em="2048" ascent="1638" descent="-410" />
<missing-glyph horiz-adv-x="602" />
<glyph unicode=" "  horiz-adv-x="602" />
<glyph unicode="&#x09;" horiz-adv-x="602" />
<glyph unicode="&#xa0;" horiz-adv-x="602" />
<glyph unicode="!" horiz-adv-x="616" d="M164 125q0 60 39.5 97.5t103.5 37.5q62 0 97.5 -34.5t35.5 -94.5q0 -55 -42 -93t-105 -38q-57 0 -93 35t-36 90zM168 1382q49 31 88 45.5t70 14.5q46 0 70 -26t24 -77q0 -61 -31 -295.5t-31 -406.5q0 -90 7.5 -138.5t23.5 -74.5q-20 -12 -38 -18.5t-34 -6.5q-60 0 -86 61 t-26 204q0 64 6 199t6 206q0 107 -12 182t-37 131z" />
<glyph unicode="&#x22;" horiz-adv-x="678" d="M90 1362q0 53 24.5 80.5t69.5 27.5t71 -28t26 -78q0 -8 -1.5 -18.5t-3.5 -22.5l-59 -400q-5 -28 -13 -41.5t-20 -13.5t-18.5 10.5t-11.5 47.5l-62 397q-1 6 -1.5 13.5t-0.5 25.5zM399 1362q0 52 25 80t70 28t70.5 -28t25.5 -78q0 -10 -1 -20.5t-3 -20.5l-60 -400 q-4 -27 -12 -41t-20 -14q-13 0 -19 10.5t-12 47.5l-62 398q-1 9 -1.5 17.5t-0.5 20.5z" />
<glyph unicode="#" horiz-adv-x="1139" d="M53 518q0 28 26.5 47t65.5 19h125l76 243h-102q-34 0 -55 17.5t-21 44.5q0 29 25.5 48t66.5 19h125l125 410q10 35 33.5 56.5t50.5 21.5q25 0 41 -16t16 -42q0 -5 -1 -11.5t-3 -14.5l-125 -404h240l127 404q12 35 36 57.5t50 22.5q22 0 36.5 -13.5t14.5 -33.5 q0 -13 -1 -20t-3 -13l-125 -404h113q32 0 51.5 -16.5t19.5 -42.5q0 -30 -27.5 -50t-70.5 -20h-127l-74 -243h115q32 0 52 -16.5t20 -43.5q0 -30 -27.5 -49.5t-71.5 -19.5h-129l-125 -404q-11 -36 -35.5 -58t-52.5 -22q-22 0 -36.5 13t-14.5 32q0 13 1 20t3 13l125 406h-239 l-125 -404q-12 -36 -36.5 -58t-51.5 -22q-23 0 -37.5 12.5t-14.5 32.5q0 13 1 20t3 13l125 406h-102q-35 0 -55.5 17t-20.5 46zM403 580h244l78 251h-246z" />
<glyph unicode="$" horiz-adv-x="1165" d="M221 115q0 25 10.5 50t34.5 58q36 -21 82 -31t113 -10q128 0 199 53t71 148q0 58 -33.5 107t-137.5 128q-11 8 -28 21q-276 207 -276 362q0 110 76.5 209.5t211.5 165.5q-2 47 -3.5 97t-1.5 102q0 61 19 88t60 27q21 0 42 -9.5t42 -27.5q-11 -28 -18 -82t-12 -149 q35 8 64.5 12t56.5 4q80 0 121.5 -23.5t41.5 -68.5q0 -24 -9.5 -47t-41.5 -68q-44 17 -86 25t-86 8q-135 0 -213 -57.5t-78 -155.5q0 -112 195 -264q23 -18 35 -27q146 -114 194.5 -187t48.5 -157q0 -107 -67 -198t-195 -157q1 -19 2 -55q2 -104 2 -141q0 -69 -16.5 -98 t-54.5 -29q-26 0 -48.5 10.5t-48.5 34.5q17 39 25.5 95.5t9.5 133.5l-6 -1q-68 -11 -102 -11q-96 0 -145.5 29.5t-49.5 85.5z" />
<glyph unicode="%" horiz-adv-x="2034" d="M94 997q0 202 102 320.5t273 118.5q172 0 264 -100t92 -287q0 -202 -106.5 -326.5t-276.5 -124.5q-156 0 -252 109t-96 290zM242 1020q0 -141 55 -219t154 -78q107 0 167 84.5t60 236.5q0 131 -55.5 203t-155.5 72q-110 0 -167.5 -77t-57.5 -222zM598 49q0 53 179 358 q165 281 270 474q115 214 177.5 362t65.5 215q24 3 42 4.5t30 1.5q49 0 74.5 -20.5t25.5 -59.5q0 -49 -170 -339t-282 -502q-123 -232 -181.5 -370.5t-58.5 -195.5v-1q-25 -3 -37 -4t-20 -1q-60 0 -87.5 19t-27.5 59zM1229 397q0 202 102.5 321.5t274.5 119.5t264 -100 t92 -287q0 -200 -107.5 -325.5t-277.5 -125.5q-157 0 -252.5 109t-95.5 288zM1376 422q0 -141 55 -219t154 -78q108 0 169 84.5t61 236.5q0 130 -55.5 201.5t-155.5 71.5q-111 0 -169.5 -76.5t-58.5 -220.5z" />
<glyph unicode="&#x26;" horiz-adv-x="1436" d="M80 391q0 151 83.5 270t246.5 199q-23 54 -34 104t-11 101q0 174 111.5 276.5t301.5 102.5q114 0 186 -39t72 -98q0 -33 -22 -60.5t-66 -48.5q-39 49 -88.5 72.5t-109.5 23.5q-96 0 -152.5 -62t-56.5 -169q0 -139 109.5 -301t340.5 -363q41 79 61.5 154t20.5 145v10 q27 6 48 8.5t38 2.5q47 0 68.5 -18.5t21.5 -59.5q0 -49 -35 -133.5t-106 -206.5q81 -63 145.5 -94t116.5 -31q7 0 15.5 1t19.5 3q12 -25 18.5 -48t6.5 -46q0 -46 -25.5 -73t-67.5 -27q-55 0 -140.5 47.5t-186.5 136.5q-110 -105 -219 -152t-242 -47q-215 0 -342 114 t-127 306zM252 416q0 -133 89.5 -213t238.5 -80q92 0 169.5 35.5t143.5 107.5q-126 106 -230 223t-188 246q-109 -54 -166 -136t-57 -183z" />
<glyph unicode="'" horiz-adv-x="369" d="M90 1362q0 53 24.5 80.5t69.5 27.5t71 -28t26 -78q0 -8 -1.5 -18.5t-3.5 -22.5l-59 -397q-5 -30 -12.5 -44t-20.5 -14q-12 0 -18.5 10.5t-11.5 47.5l-62 397q-1 6 -1.5 13.5t-0.5 25.5z" />
<glyph unicode="(" horiz-adv-x="721" d="M197 582q0 228 65 439t182 361q37 48 70.5 70.5t69.5 22.5q35 0 65.5 -24t59.5 -75q-167 -106 -258 -322.5t-91 -506.5q0 -195 41 -375t119 -330q18 -33 48 -85q40 -67 40 -87q0 -18 -11.5 -30.5t-27.5 -12.5q-20 0 -47.5 21t-48.5 53q-5 8 -18 28q-133 204 -191 384 q-33 107 -50 224.5t-17 244.5z" />
<glyph unicode=")" horiz-adv-x="721" d="M12 -274q166 106 257 322.5t91 506.5q0 182 -36 353t-103 309q-24 48 -66 121t-42 94q0 17 11.5 30t27.5 13q20 0 46 -20t50 -54q141 -198 208.5 -414.5t67.5 -466.5q0 -222 -61 -425t-174 -359q-40 -56 -77 -82.5t-75 -26.5q-36 0 -67 24.5t-58 74.5z" />
<glyph unicode="*" d="M119 1184q0 32 23.5 54t58.5 22q37 0 90.5 -32.5t105.5 -86.5q18 -20 28.5 -39t10.5 -31q0 -23 -15.5 -36t-43.5 -13q-23 0 -71 15.5t-103 41.5q-41 20 -62.5 47t-21.5 58zM195 766q0 32 32 73t95 89q27 21 52.5 33t41.5 12q20 0 33.5 -13.5t13.5 -33.5v-2q0 -21 -19 -62 t-51 -86q-34 -48 -62 -68t-59 -20q-33 0 -55 22t-22 56zM424 1350q0 55 24 87.5t64 32.5t63 -31t25 -89v2q-6 -104 -29.5 -164t-58.5 -60q-36 0 -62 62.5t-26 159.5zM559 922q0 20 14.5 34.5t34.5 14.5q26 0 67.5 -27.5t94.5 -79.5q27 -25 42 -53t15 -51q0 -32 -21.5 -53 t-53.5 -21t-62 21t-61 65t-50.5 86.5t-19.5 63.5zM590 1069q0 12 10.5 30t30.5 40q53 56 104.5 87t89.5 31q37 0 59.5 -21.5t22.5 -55.5q0 -29 -19.5 -54t-60.5 -49q-46 -26 -95.5 -42.5t-78.5 -16.5t-46 14t-17 37z" />
<glyph unicode="+" horiz-adv-x="1378" d="M84 610q0 36 25 56t69 20h436v444q0 45 19.5 70t54.5 25q31 0 53.5 -27t22.5 -65v-447h438q39 0 65.5 -22t26.5 -54q0 -34 -25 -54.5t-69 -20.5h-436v-445q0 -44 -20 -69t-56 -25q-30 0 -52 26.5t-22 63.5v449h-438q-39 0 -65.5 22t-26.5 53z" />
<glyph unicode="," horiz-adv-x="584" d="M123 131q0 53 36.5 87t94.5 34q83 0 133.5 -56t50.5 -147q0 -77 -42.5 -136t-133.5 -108l2 2q-15 -7 -23.5 -10.5t-14.5 -5.5l-7 10l14 11q28 19 46 54.5t18 67.5q0 11 -1.5 24.5t-4.5 28.5q-17 26 -58 34q-9 2 -13 3q-58 16 -77.5 39t-19.5 68z" />
<glyph unicode="-" horiz-adv-x="631" d="M76 473q0 67 33 98t106 31q34 0 114 -8t126 -8q26 0 50.5 4.5t45.5 13.5q1 -15 2.5 -34t1.5 -21q0 -67 -33.5 -98t-105.5 -31q-40 0 -115.5 9t-112.5 9q-31 0 -58 -5t-52 -15q-1 11 -1.5 23.5t-0.5 31.5z" />
<glyph unicode="." horiz-adv-x="584" d="M145 113q0 60 40.5 97.5t105.5 37.5q61 0 96 -34.5t35 -94.5q0 -55 -42.5 -93t-105.5 -38q-56 0 -92.5 34.5t-36.5 90.5z" />
<glyph unicode="/" horiz-adv-x="758" d="M-53 -152q0 11 4.5 25t19.5 47l629 1424l3 6q43 94 116 94q24 0 38.5 -10t14.5 -27q0 -9 -6 -25.5t-21 -48.5l-626 -1423q-30 -69 -52.5 -84.5t-64.5 -15.5q-27 0 -41 10t-14 28z" />
<glyph unicode="0" horiz-adv-x="1204" d="M72 668q0 359 148 564.5t405 205.5q242 0 373.5 -176t131.5 -498q0 -354 -152.5 -572.5t-395.5 -218.5q-231 0 -370.5 189.5t-139.5 505.5zM260 700q0 -275 86.5 -424t245.5 -149q168 0 261 163.5t93 461.5q0 261 -86.5 398.5t-251.5 137.5q-167 0 -257.5 -152 t-90.5 -436z" />
<glyph unicode="1" horiz-adv-x="815" d="M123 1253q0 20 5.5 45t16.5 55q90 19 199 54t133 35q35 0 48.5 -21t13.5 -80q0 -16 -6 -92q-23 -341 -23 -663q0 -258 12.5 -371.5t42.5 -169.5q-42 -23 -79.5 -34t-71.5 -11q-58 0 -78.5 25.5t-20.5 105.5q0 47 11.5 339.5t11.5 539.5q0 74 -2 132.5t-6 106.5l-30 -12 q-108 -45 -126 -45q-25 0 -38 15.5t-13 45.5z" />
<glyph unicode="2" horiz-adv-x="1165" d="M68 98q0 104 209 256q58 42 90 66q231 175 337.5 317t106.5 275q0 117 -79 189.5t-208 72.5q-102 0 -175 -49.5t-128 -155.5q-42 27 -63 59t-21 68q0 103 112.5 176.5t280.5 73.5q210 0 340.5 -117t130.5 -303q0 -191 -173 -396t-549 -458q28 -1 76 -2q86 -2 112 -2 q195 0 318 17.5t186 53.5q13 -34 19.5 -64.5t6.5 -57.5q0 -66 -42 -92.5t-154 -26.5q-85 0 -238.5 5t-222.5 5q-70 0 -130 -3.5t-113 -10.5q-15 29 -22 55t-7 49z" />
<glyph unicode="3" horiz-adv-x="1165" d="M135 88q0 25 14.5 56t45.5 73q43 -36 99.5 -54t125.5 -18q161 0 266 77t105 192q0 101 -74 156t-241 77q-28 4 -75 8q-120 10 -120 64q0 53 99 75q14 3 22 5q194 42 281 106.5t87 165.5q0 90 -70 143.5t-188 53.5q-76 0 -137 -26t-111 -79q-35 25 -52 51t-17 56 q0 73 92 122.5t237 49.5q196 0 316.5 -95t120.5 -247q0 -129 -90.5 -220t-256.5 -128q187 -39 277 -120t90 -210q0 -190 -177 -320.5t-442 -130.5q-113 0 -170 29.5t-57 87.5z" />
<glyph unicode="4" horiz-adv-x="1165" d="M41 502q0 86 264 386q125 143 199 230q15 19 44 53q224 269 300 269q30 0 42.5 -20.5t12.5 -76.5q0 -15 -5 -86q-24 -343 -24 -671v-45q74 0 129 9.5t91 28.5q13 -28 19.5 -50.5t6.5 -41.5q0 -56 -36 -80t-121 -24q-22 0 -74 3q-8 1 -12 1q1 -74 3.5 -172.5t2.5 -122.5 q0 -68 -18.5 -94.5t-63.5 -26.5q-29 0 -65.5 12t-82.5 35q27 49 40.5 140.5t14.5 232.5q-149 0 -314 3q-42 1 -52 1q-90 0 -150.5 -4.5t-92.5 -13.5q-30 33 -44 63t-14 62zM229 563q0 -18 22 -25.5t81 -7.5q15 0 59.5 1t73.5 1q36 0 159 3q57 1 89 2q3 122 4.5 243t1.5 238 v153q-141 -179 -315.5 -383.5t-174.5 -224.5z" />
<glyph unicode="5" horiz-adv-x="1165" d="M102 104q0 25 15.5 59t46.5 77q44 -41 98 -60.5t123 -19.5q185 0 305.5 102.5t120.5 257.5q0 121 -79 188.5t-220 67.5q-83 0 -175 -18.5t-101 -18.5q-28 0 -42 14t-14 42q0 14 45 221.5t83 396.5q79 -5 140 -7.5t113 -2.5q148 0 242 11.5t152 34.5q15 -27 22.5 -51.5 t7.5 -45.5q0 -64 -49.5 -87.5t-226.5 -23.5q-65 0 -135 1.5t-146 4.5q-10 -54 -27 -141t-41 -201q63 12 111 17.5t84 5.5q204 0 323 -104t119 -281q0 -99 -35.5 -188t-101.5 -156q-103 -106 -234 -159.5t-282 -53.5q-114 0 -178 31.5t-64 86.5z" />
<glyph unicode="6" horiz-adv-x="1165" d="M94 506q0 254 105 471t290 350q80 57 162.5 90t139.5 33q47 0 70.5 -20.5t23.5 -63.5q0 -16 -2.5 -34t-8.5 -38q-236 -20 -382 -163t-197 -406q69 74 158.5 110.5t199.5 36.5q192 0 303 -110.5t111 -302.5q0 -213 -141.5 -349.5t-362.5 -136.5q-225 0 -347 138.5 t-122 394.5zM281 465q0 -163 75.5 -250.5t214.5 -87.5q146 0 231 88t85 240q0 132 -72 202t-207 70q-99 0 -176.5 -35.5t-142.5 -109.5q-4 -28 -6 -56.5t-2 -60.5z" />
<glyph unicode="7" horiz-adv-x="1165" d="M135 1327q0 49 29.5 68.5t107.5 19.5q1 0 169.5 -5t336.5 -5q88 0 149 8t109 25q19 -30 27 -55.5t8 -51.5q0 -71 -141.5 -307t-218.5 -391q-107 -213 -156 -355.5t-49 -236.5q0 -4 1 -18.5t1 -24.5q-39 -12 -68.5 -18.5t-46.5 -6.5q-52 0 -78 24.5t-26 72.5 q0 96 106 317.5t469 845.5q-56 5 -121.5 7.5t-150.5 2.5q-153 0 -253.5 -13t-156.5 -40q-23 39 -35 73.5t-12 63.5z" />
<glyph unicode="8" horiz-adv-x="1165" d="M123 342q0 123 69 213.5t205 146.5q-127 57 -190.5 143.5t-63.5 205.5q0 176 130.5 285.5t342.5 109.5q194 0 309 -97t115 -259q0 -126 -73.5 -218.5t-221.5 -150.5q151 -45 222 -123.5t71 -200.5q0 -188 -134.5 -309t-346.5 -121q-196 0 -315 103t-119 272zM299 358 q0 -108 75.5 -173.5t198.5 -65.5q130 0 211.5 74t81.5 190q0 96 -74.5 157.5t-259.5 112.5q-120 -53 -176.5 -124.5t-56.5 -170.5zM319 1049q0 -102 70.5 -170.5t208.5 -104.5q134 44 203 118.5t69 174.5q0 106 -71 167.5t-195 61.5q-129 0 -207 -67.5t-78 -179.5z" />
<glyph unicode="9" horiz-adv-x="1165" d="M94 965q0 217 136 348t364 131q223 0 346 -144t123 -405q0 -257 -99 -467t-280 -340q-79 -57 -171.5 -91t-162.5 -34q-52 0 -78 22t-26 66q0 13 11 58q2 8 4 12q10 -2 23 -3t33 -1q191 0 343.5 155t205.5 410q-61 -69 -153.5 -106t-202.5 -37q-194 0 -305 113.5 t-111 312.5zM274 975q0 -139 73 -213t210 -74q90 0 169 38t151 116q2 14 3 31t1 51q0 183 -75.5 276.5t-223.5 93.5q-143 0 -225.5 -85.5t-82.5 -233.5z" />
<glyph unicode=":" horiz-adv-x="631" d="M162 113q0 60 40 97.5t105 37.5q61 0 96 -35t35 -94q0 -55 -42 -93t-105 -38q-57 0 -93 34.5t-36 90.5zM172 780q0 61 40 98t105 37q61 0 96.5 -34.5t35.5 -94.5q0 -55 -42.5 -93t-105.5 -38q-57 0 -93 35t-36 90z" />
<glyph unicode=";" horiz-adv-x="631" d="M147 131q0 52 37 85.5t95 33.5q81 0 132.5 -56t51.5 -145q0 -76 -43.5 -136t-132.5 -108l1 2q-14 -7 -22.5 -10.5t-15.5 -5.5l-6 10l14 11q27 19 45.5 54.5t18.5 67.5q0 11 -2 25t-5 29q-17 25 -59 34q-9 2 -13 3q-56 15 -76 38t-20 68zM166 780q0 61 40 98t105 37 q61 0 96 -34.5t35 -94.5q0 -55 -42 -93t-105 -38q-57 0 -93 35t-36 90z" />
<glyph unicode="&#x3c;" horiz-adv-x="1706" d="M236 610q0 31 25.5 56t78.5 47l1015 415q13 5 25 8t19 3q35 0 55.5 -19.5t20.5 -52.5q0 -26 -17 -49t-45 -35l-917 -373l917 -374q28 -13 45 -36t17 -48q0 -32 -20 -52t-50 -20q-14 0 -25.5 2.5t-23.5 7.5l-1018 418q-47 19 -74.5 46.5t-27.5 55.5z" />
<glyph unicode="=" horiz-adv-x="1706" d="M246 420q0 35 25 55.5t69 20.5h1024q39 0 65.5 -22.5t26.5 -53.5q0 -36 -25.5 -56t-70.5 -20h-1022q-39 0 -65.5 22t-26.5 54zM246 803q0 35 24.5 55.5t67.5 20.5l1024 -2q39 0 66.5 -22.5t27.5 -53.5q0 -34 -26.5 -54t-71.5 -20h-1022q-39 0 -64.5 22t-25.5 54z" />
<glyph unicode="&#x3e;" horiz-adv-x="1706" d="M250 152q0 24 15.5 44.5t47.5 39.5q14 6 243 99.5t673 274.5l-916 373q-29 12 -46 35t-17 49q0 30 21.5 51t52.5 21q10 0 21 -2.5t25 -7.5l1014 -416q54 -22 79.5 -47t25.5 -56q0 -27 -28 -55t-75 -47l-1017 -418q-18 -6 -28.5 -8t-18.5 -2q-31 0 -51.5 20.5t-20.5 51.5z " />
<glyph unicode="?" horiz-adv-x="811" d="M127 1311q0 59 50 94t136 35q154 0 265.5 -103.5t111.5 -242.5q0 -136 -150 -332q-15 -20 -22 -29q-76 -101 -101.5 -156t-25.5 -106q0 -15 1.5 -32t4.5 -35q-8 -2 -17 -2.5t-22 -0.5q-59 0 -92 31t-33 86q0 84 132 257q31 41 47 63q67 93 89.5 147t22.5 107 q0 79 -54.5 129.5t-141.5 50.5q-42 0 -85 -15.5t-89 -46.5q-15 41 -21 63.5t-6 37.5zM203 125q0 60 39.5 97.5t103.5 37.5q62 0 97.5 -34.5t35.5 -94.5q0 -55 -42 -93t-105 -38q-57 0 -93 35t-36 90z" />
<glyph unicode="@" horiz-adv-x="2048" d="M225 371q0 194 68.5 365.5t195.5 299.5q132 132 309.5 200.5t389.5 68.5q286 0 455 -156.5t169 -421.5q0 -134 -42.5 -249t-124.5 -202q-72 -76 -165.5 -119.5t-183.5 -43.5q-61 0 -90.5 26.5t-29.5 81.5q0 13 0.5 20t0.5 12q-62 -72 -130 -108t-144 -36 q-127 0 -204.5 90t-77.5 239q0 97 38.5 183t120.5 174q55 58 150 93.5t200 35.5q60 0 138.5 -14t177.5 -42q-55 -170 -86 -335.5t-31 -262.5q0 -12 3 -16t11 -4q18 0 52 11.5t61 29.5q104 65 155.5 172t51.5 256q0 213 -132.5 331.5t-369.5 118.5q-169 0 -311 -57.5 t-250 -169.5q-106 -109 -161.5 -256t-55.5 -319q0 -271 170 -430.5t459 -159.5q196 0 362.5 85.5t345.5 280.5q19 21 36 31t32 10q24 0 39.5 -14.5t15.5 -36.5t-21 -58.5t-59 -78.5q-156 -174 -354.5 -264t-427.5 -90q-341 0 -548.5 200t-207.5 529zM772 440 q0 -104 48.5 -157.5t142.5 -53.5q53 0 108.5 36t118.5 112l4 24q62 328 68 369q-42 17 -80 26t-74 9q-142 0 -239 -105t-97 -260z" />
<glyph unicode="A" horiz-adv-x="1364" d="M53 102q0 51 194 441t339 725q-16 23 -34.5 44.5t-39.5 43.5q37 46 67.5 67t61.5 21q43 0 83.5 -55.5t94.5 -188.5q47 -115 129 -321q278 -699 387 -803q-38 -42 -70 -60t-67 -18q-101 0 -229 344q-29 76 -45 119h-541q-80 -174 -111.5 -273t-31.5 -170l-1 -16 q-23 -3 -33.5 -3.5t-19.5 -0.5q-65 0 -99 26.5t-34 77.5zM449 598h421q-51 137 -102 263.5t-102 244.5l-48 -112q-115 -270 -169 -396z" />
<glyph unicode="B" horiz-adv-x="1204" d="M143 1438q141 0 292 6q37 2 44 2q254 0 402.5 -104.5t148.5 -278.5q0 -113 -69.5 -198t-206.5 -140q138 -37 209 -112.5t71 -186.5q0 -182 -173 -307t-435 -125q-146 0 -194 35t-48 135q0 24 9.5 240.5t9.5 406.5q0 270 -14 413.5t-46 213.5zM371 785q28 -4 54 -5.5 t50 -1.5q177 0 273 68.5t96 193.5t-91.5 191.5t-260.5 66.5q-27 0 -55 -1.5t-58 -4.5q-3 -81 -4.5 -191.5t-3.5 -315.5zM374 508q0 -72 0.5 -150t2.5 -196q34 -5 66 -7.5t63 -2.5q153 0 246.5 71.5t93.5 186.5q0 120 -96 181.5t-283 61.5q-16 0 -34.5 -0.5t-58.5 -3.5v-141z " />
<glyph unicode="C" horiz-adv-x="1346" d="M68 709q0 175 77.5 321.5t231.5 261.5q114 85 269.5 131.5t326.5 46.5q132 0 185.5 -22t53.5 -76q0 -23 -12.5 -54.5t-38.5 -74.5q-55 25 -118 37t-136 12q-285 0 -460 -155.5t-175 -407.5q0 -249 165 -409t423 -160q80 0 152.5 19t144.5 59q30 -39 43.5 -68.5 t13.5 -54.5q0 -62 -88 -96.5t-245 -34.5q-169 0 -311.5 46t-247.5 134q-127 106 -190.5 242.5t-63.5 302.5z" />
<glyph unicode="D" horiz-adv-x="1493" d="M143 1438q137 2 274.5 7t140.5 5q391 0 622.5 -186t231.5 -496q0 -166 -68.5 -313.5t-197.5 -257.5q-119 -102 -278.5 -153.5t-356.5 -51.5q-201 0 -264.5 32t-63.5 123q0 7 9.5 237t9.5 454q0 243 -14.5 384.5t-44.5 215.5zM380 602q0 -110 2.5 -214.5t8.5 -203.5 q47 -12 94.5 -18t95.5 -6q279 0 450.5 156t171.5 409q0 251 -170 408t-442 157q-55 0 -104 -3.5t-94 -10.5q-7 -212 -10 -380.5t-3 -293.5z" />
<glyph unicode="E" horiz-adv-x="1051" d="M168 1430h127q234 0 481 15q53 3 64 3q81 0 111 -18t30 -64q0 -26 -10.5 -58.5t-32.5 -72.5q-53 24 -128.5 35.5t-191.5 11.5q-48 0 -178 -3q-32 -1 -49 -1l-8 -442q27 -2 58 -2h98q133 0 219.5 6t126.5 18q12 -28 18 -49.5t6 -38.5q0 -48 -31 -69t-102 -21 q-23 0 -113.5 2t-156.5 2q-50 0 -77 -0.5t-50 -1.5q0 -113 -2.5 -240.5t-7.5 -279.5q10 0 30 -1q131 -3 187 -3q107 0 182.5 12.5t134.5 40.5q22 -38 31.5 -66.5t9.5 -52.5q0 -53 -35 -74.5t-133 -21.5q-48 0 -144 3t-143 3q-106 0 -212 -5q-22 -1 -27 -1q-35 0 -49.5 16 t-14.5 56q0 21 5 107q16 310 16 581q0 269 -9.5 431t-29.5 243z" />
<glyph unicode="F" horiz-adv-x="1075" d="M172 1439q51 -2 95.5 -3.5t80.5 -1.5q116 0 280 11t214 11q77 0 108 -18t31 -62q0 -30 -10.5 -64t-32.5 -75q-43 25 -123 37t-197 12q-42 0 -100 -1.5t-130 -4.5l-1 -141q0 -34 -2 -161q-1 -94 -2 -152q15 -2 31 -2.5t43 -0.5q206 0 298 7t150 24q9 -18 14 -36.5t5 -35.5 q0 -62 -35.5 -87t-130.5 -25h-42q-118 2 -218 2q-17 0 -57 -1t-62 -1q0 -270 15.5 -412.5t49.5 -206.5q-48 -25 -89.5 -38t-75.5 -13q-54 0 -74.5 27.5t-20.5 105.5q0 32 11.5 352t11.5 609q0 111 -8.5 194.5t-26.5 150.5z" />
<glyph unicode="G" horiz-adv-x="1503" d="M78 653q0 153 58 288.5t173 250.5q132 133 311.5 204.5t380.5 71.5q88 0 129 -23t41 -73q0 -23 -9 -53.5t-27 -67.5q-39 16 -83 23.5t-98 7.5q-291 0 -478 -168.5t-187 -431.5q0 -258 162.5 -398.5t461.5 -140.5q75 0 146 12.5t139 37.5q7 44 10.5 92t3.5 104 q0 94 -17 160.5t-52 107.5q50 31 88.5 46.5t62.5 15.5q62 0 87.5 -45t25.5 -162q0 -152 -24 -267t-62 -157q-53 -56 -157.5 -84.5t-258.5 -28.5q-374 0 -600.5 186.5t-226.5 491.5z" />
<glyph unicode="H" horiz-adv-x="1626" d="M141 1391q49 26 90 39.5t74 13.5q52 0 73 -30t21 -105q0 -15 -6.5 -171.5t-9.5 -301.5h864v79q0 191 -14.5 305.5t-44.5 170.5q52 27 93.5 40t74.5 13q51 0 71.5 -30t20.5 -107q0 -26 -9 -236.5t-9 -394.5q0 -279 15 -419.5t50 -205.5q-47 -26 -89 -38.5t-81 -12.5 q-53 0 -73.5 28.5t-20.5 104.5q0 5 6.5 191t7.5 368h-864v-100q0 -223 15 -351.5t48 -189.5q-48 -25 -89.5 -38t-75.5 -13q-55 0 -75 29t-20 114q0 41 10.5 270.5t10.5 417.5q0 236 -15 366.5t-49 193.5z" />
<glyph unicode="I" horiz-adv-x="602" d="M152 1391q51 27 92.5 40t77.5 13q52 0 73 -30t21 -107q0 -12 -10.5 -248.5t-10.5 -462.5q0 -228 15 -355t49 -190q-47 -25 -90 -38t-82 -13q-53 0 -72.5 29.5t-19.5 113.5q0 43 9 271.5t9 416.5q0 241 -14.5 371.5t-46.5 188.5z" />
<glyph unicode="J" horiz-adv-x="807" d="M12 88q0 29 14 59t44 64q34 -30 70 -44.5t75 -14.5q124 0 172.5 120t48.5 473q0 254 -17 415t-52 233q48 24 86.5 35.5t70.5 11.5q55 0 74.5 -35.5t19.5 -169.5q0 -358 -6 -542.5t-20 -289.5q-29 -210 -131 -321t-264 -111q-84 0 -134.5 32.5t-50.5 84.5z" />
<glyph unicode="K" horiz-adv-x="1276" d="M141 1391q48 25 88.5 38t75.5 13q53 0 73.5 -28.5t20.5 -104.5q0 -15 -3 -76q-12 -234 -13 -444q258 254 390.5 411t170.5 252q76 -20 113 -46.5t37 -62.5q0 -59 -307 -349q-132 -124 -209 -199q40 -43 116 -122q509 -532 610 -538q-17 -74 -49.5 -113.5t-72.5 -39.5 q-38 0 -81.5 28.5t-117.5 106.5q-12 13 -212 236.5t-388 400.5v-146q0 -234 12 -359.5t39 -189.5q-47 -30 -84.5 -44.5t-70.5 -14.5q-50 0 -72.5 38.5t-22.5 123.5q0 49 9.5 275t9.5 403q0 245 -14.5 366.5t-47.5 184.5z" />
<glyph unicode="L" horiz-adv-x="954" d="M143 1391q46 25 87.5 38t80.5 13q56 0 76.5 -28.5t20.5 -117.5q0 -26 -5 -138q-18 -429 -18 -810v-182q42 -4 83.5 -6t82.5 -2q144 0 227 13t137 42q20 -34 29.5 -65.5t9.5 -63.5q0 -48 -35 -67t-131 -19q-34 0 -129 3t-155 3q-85 0 -171 -4t-87 -4q-34 0 -48 16t-14 56 q0 20 5 104q18 317 18 602q0 268 -15 411t-49 206z" />
<glyph unicode="M" horiz-adv-x="1948" d="M76 51q78 195 119 464t41 597q0 79 -8.5 146.5t-24.5 130.5q33 29 60.5 42t58.5 13q97 0 311 -443q81 -167 131 -266q113 -224 154.5 -296t54.5 -72q27 0 273 500q102 206 163 329q66 134 116.5 191t100.5 57q29 0 56.5 -13t62.5 -42q-18 -65 -26.5 -133.5t-8.5 -149.5 q0 -323 41 -591t121 -464q-48 -26 -90 -38.5t-82 -12.5q-42 0 -66 18t-35 58q-6 24 -22 365.5t-45 666.5q-209 -394 -440 -863q-42 -87 -58 -118q-19 -38 -37.5 -54t-42.5 -16q-48 0 -99 110q-12 25 -19 39q-162 329 -273.5 548.5t-183.5 349.5q-17 -253 -33 -620.5 t-35 -424.5q-10 -31 -30 -45t-54 -14q-26 0 -63.5 12.5t-87.5 38.5z" />
<glyph unicode="N" horiz-adv-x="1642" d="M102 1335q44 52 78 74.5t68 22.5q32 0 63 -20.5t76 -72.5q8 -9 37 -44q383 -456 860 -987q3 149 4.5 263t1.5 195q0 266 -21 405.5t-69 223.5q45 24 81.5 35.5t68.5 11.5q57 0 78.5 -33.5t21.5 -144.5q0 -66 -11.5 -324.5t-11.5 -452.5q0 -126 6 -236t17 -206l-104 -57 q-183 180 -506 556.5t-483 544.5q1 -376 14 -794q4 -111 4 -135q0 -99 -21 -129.5t-78 -30.5q-37 0 -77 13t-80 38q54 92 76 264.5t22 608.5q0 205 -25.5 291t-89.5 120z" />
<glyph unicode="O" horiz-adv-x="1716" d="M80 707q0 163 58.5 303t172.5 247q111 105 258 159t320 54q339 0 543 -192t204 -510q0 -157 -55.5 -296.5t-161.5 -248.5q-121 -126 -272 -189t-332 -63q-152 0 -284.5 50.5t-233.5 146.5q-108 102 -162.5 237t-54.5 302zM289 721q0 -259 153 -421.5t398 -162.5 q260 0 423.5 172t163.5 445q0 253 -152 405t-407 152q-263 0 -421 -161t-158 -429z" />
<glyph unicode="P" horiz-adv-x="1118" d="M141 1430h43q62 0 190.5 10t194.5 10q228 0 357 -109.5t129 -302.5q0 -223 -153 -363t-398 -140q-38 0 -69 1.5t-60 5.5q1 -190 17 -309t48 -182q-48 -26 -89 -39.5t-75 -13.5q-54 0 -75 30t-21 115q0 52 10.5 269.5t10.5 384.5q0 277 -14.5 429t-45.5 204zM377 690 q28 -4 58.5 -6t66.5 -2q165 0 258.5 87.5t93.5 242.5q0 140 -82 213t-240 73q-31 0 -64.5 -3.5t-74.5 -12.5q-8 -138 -12 -266.5t-4 -249.5v-76z" />
<glyph unicode="Q" horiz-adv-x="1716" d="M80 707q0 333 227.5 548t581.5 215q338 0 542.5 -192t204.5 -510q0 -270 -141.5 -458t-415.5 -283q135 -41 235 -60.5t177 -19.5q35 0 68 2.5t65 7.5q15 -36 22 -66t7 -57q0 -48 -30 -74t-85 -26q-48 0 -107.5 12t-125.5 35q-42 14 -123 42q-399 138 -561 138 q-59 0 -115.5 -16.5t-116.5 -50.5q-21 24 -31 44t-10 37q0 40 32.5 60t96.5 20h10q-192 72 -299.5 244t-107.5 408zM289 721q0 -259 153 -421.5t398 -162.5q259 0 423 172t164 445q0 255 -152.5 406t-412.5 151q-259 0 -416 -162t-157 -428z" />
<glyph unicode="R" horiz-adv-x="1309" d="M143 1429q129 4 270 12.5t157 8.5q225 0 354.5 -107t129.5 -290q0 -161 -82 -275.5t-242 -177.5q73 -25 181 -147q29 -33 44 -50q113 -123 197 -191.5t143 -84.5q-29 -78 -61 -111.5t-76 -33.5q-37 0 -81.5 31t-104.5 102q-45 52 -122 144q-236 286 -376 286 q-16 0 -39 -1.5t-57 -5.5q6 -223 20 -326.5t43 -160.5q-48 -26 -88.5 -38.5t-74.5 -12.5q-55 0 -75 28t-20 115q0 30 9.5 263t9.5 438q0 264 -14 391t-45 194zM378 666q8 0 23.5 -1t23.5 -1q204 0 319 96t115 266q0 130 -84.5 201t-238.5 71q-34 0 -69 -4t-73 -12 q-8 -167 -12 -320t-4 -296z" />
<glyph unicode="S" horiz-adv-x="883" d="M90 102q0 26 10.5 55.5t32.5 63.5q43 -23 87.5 -34t94.5 -11q119 0 187.5 53.5t68.5 145.5q0 110 -179 255l-1 1q-3 2 -9 7q-259 207 -259 366q0 73 32 144t91 130q89 87 191 132.5t210 45.5q78 0 117 -26t39 -78q0 -18 -13 -47.5t-38 -69.5q-39 16 -79.5 24.5t-82.5 8.5 q-128 0 -200.5 -57.5t-72.5 -157.5q0 -60 29.5 -109t110.5 -117q12 -10 35 -29q272 -228 272 -386q0 -60 -21.5 -118t-64.5 -114q-73 -93 -181.5 -143.5t-234.5 -50.5q-85 0 -128.5 29.5t-43.5 86.5z" />
<glyph unicode="T" horiz-adv-x="1223" d="M0 1343q0 45 31 63.5t108 18.5q40 0 229 -9t339 -9q181 0 288.5 14t163.5 45q20 -32 29.5 -58.5t9.5 -49.5q0 -54 -40 -79.5t-124 -25.5q-31 0 -150 5t-190 7q-7 -175 -10.5 -329.5t-3.5 -284.5q0 -249 15.5 -391t49.5 -209q-48 -27 -91 -40t-81 -13q-51 0 -71.5 28.5 t-20.5 106.5q0 51 10.5 310.5t10.5 467.5q0 53 -3 224q-1 83 -1 131h-76q-147 0 -237.5 -13t-139.5 -41q-23 44 -34 75.5t-11 55.5z" />
<glyph unicode="U" horiz-adv-x="1540" d="M139 1393q44 25 86.5 38t83.5 13q53 0 72.5 -30.5t19.5 -123.5q0 -41 -11 -244t-11 -364q0 -299 85 -423t286 -124q234 0 339 160t105 518q0 224 -25.5 366t-76.5 205q44 30 80.5 45t66.5 15q78 0 106.5 -81.5t28.5 -373.5q0 -549 -150.5 -784.5t-496.5 -235.5 q-285 0 -411 147t-126 484q0 75 5.5 213t5.5 201q0 137 -15 228.5t-47 150.5z" />
<glyph unicode="V" horiz-adv-x="1346" d="M-16 1362q33 41 68 60.5t75 19.5q98 0 200 -309q13 -36 19 -56l1 -1q278 -822 317 -822q14 0 53 48.5t82 123.5q153 270 218.5 465.5t65.5 370.5q0 42 -6 81t-18 74q33 13 60 19t50 6q62 0 86.5 -30t24.5 -105q0 -195 -100.5 -449t-321.5 -610q-103 -168 -149 -223.5 t-74 -55.5q-35 0 -80 69.5t-100 209.5q-83 207 -204 545q-178 500 -267 569z" />
<glyph unicode="W" horiz-adv-x="2066" d="M-43 1362q36 40 70 60t69 20q58 0 97 -47t104 -226q41 -115 112 -314q216 -611 263 -611q34 0 119.5 116t203.5 326q-124 308 -205 455t-153 198q29 45 62 65.5t75 20.5q108 0 308 -563q6 -19 10 -28q65 143 97 252.5t32 187.5q0 30 -5 63t-14 65q32 12 59.5 17.5 t51.5 5.5q47 0 68.5 -25t21.5 -81q0 -84 -61 -245t-183 -396q106 -210 172.5 -318t89.5 -108q14 0 53.5 46t79.5 114q159 263 231.5 466.5t72.5 383.5q0 41 -6.5 79.5t-18.5 75.5q32 12 61 18.5t54 6.5q55 0 79.5 -31t24.5 -102q0 -167 -83 -394t-236 -472l-6 -10 q-286 -462 -336 -462q-57 0 -320 551l-8 16q-169 -274 -283.5 -420.5t-158.5 -146.5q-28 0 -73.5 73t-98.5 206q-80 194 -201 515q-196 524 -291 597z" />
<glyph unicode="X" horiz-adv-x="1346" d="M104 72q0 56 90.5 181t397.5 474q-206 292 -317.5 422t-155.5 133q25 84 59.5 125t81.5 41q28 0 50.5 -16t47.5 -56q12 -17 43 -68q154 -247 297 -450q177 214 252.5 335.5t75.5 188.5q0 8 -1.5 16t-6.5 23q30 10 58 14.5t57 4.5q46 0 71 -19t25 -55q0 -53 -78 -164 t-375 -457q220 -321 327.5 -450t151.5 -129h2q-17 -78 -54.5 -122t-84.5 -44q-26 0 -47 14t-47 51q-5 8 -32 52q-153 251 -322 497q-197 -237 -277 -362.5t-80 -194.5q0 -10 1.5 -19.5t4.5 -19.5q-30 -9 -59 -13.5t-55 -4.5q-53 0 -77 17t-24 55z" />
<glyph unicode="Y" horiz-adv-x="1219" d="M-2 1288q24 83 60 125.5t83 42.5q26 0 47 -14t45 -49q10 -14 55 -93q162 -288 326 -542q203 293 284 437.5t81 207.5q0 9 -1.5 16.5t-4.5 13.5q34 9 64.5 13t56.5 4q39 0 60.5 -18.5t21.5 -53.5q0 -52 -243 -401q-149 -214 -241 -350q0 -24 -1 -70.5t-1 -67.5 q0 -174 14 -278.5t44 -161.5q-48 -25 -89 -37t-79 -12q-51 0 -71 27.5t-20 97.5q0 14 7.5 171.5t11.5 305.5q-192 337 -320 509t-190 177z" />
<glyph unicode="Z" horiz-adv-x="1184" d="M109 143q0 114 282 469q154 193 242 312q94 128 142 206.5t48 104.5q0 22 -25.5 30.5t-125.5 8.5q-222 0 -335 -13.5t-179 -43.5q-13 34 -19 62t-6 52q0 53 36.5 76t127.5 23q39 0 208.5 -5.5t299.5 -5.5q55 0 96.5 2.5t76.5 7.5q34 -32 51.5 -65.5t17.5 -67.5 q0 -117 -299 -489q-89 -111 -138 -174q-131 -168 -209.5 -286.5t-78.5 -145.5q0 -21 59 -31t184 -10q195 0 314.5 13t185.5 42q12 -33 18.5 -60.5t6.5 -48.5q0 -60 -37 -83t-154 -23q-71 0 -240.5 8t-267.5 8q-65 0 -117.5 -4t-95.5 -12q-36 34 -52.5 69t-16.5 74z" />
<glyph unicode="[" horiz-adv-x="721" d="M211 -344q13 67 21 300.5t8 588.5q0 352 -8 586t-21 303q51 -1 118 -2.5t81 -1.5q57 0 108 5t100 15q26 -27 39 -50t13 -42q0 -28 -15 -40.5t-47 -12.5q-5 0 -75.5 5t-134.5 7q6 -211 10 -405t4 -367q0 -113 -3 -276t-11 -496q66 1 135.5 5.5t74.5 4.5q31 0 46.5 -12.5 t15.5 -36.5q0 -19 -12.5 -42t-39.5 -52q-47 9 -102.5 13.5t-128.5 4.5q-39 0 -83 -0.5t-93 -1.5z" />
<glyph unicode="\" horiz-adv-x="758" d="M-45 1405q0 17 14 27t39 10q44 0 67 -16t52 -83l629 -1423q15 -33 19.5 -47t4.5 -25q0 -18 -14 -28t-41 -10q-73 0 -115 96l-2 4l-627 1424q-3 7 -10 22q-16 34 -16 49z" />
<glyph unicode="]" horiz-adv-x="721" d="M49 -270q0 27 15.5 40t48.5 13q1 0 71.5 -5.5t138.5 -6.5q-7 206 -10.5 400t-3.5 374q0 162 3.5 356.5t10.5 415.5q-66 -2 -135.5 -7t-74.5 -5q-32 0 -48 12.5t-16 36.5q0 19 13 42t40 54q49 -10 100.5 -15t108.5 -5q14 0 81 1.5t118 2.5q-15 -74 -23 -304.5t-8 -584.5 q0 -355 8 -585t22 -304q-47 1 -92.5 1.5t-105.5 0.5q-55 0 -107 -5t-102 -15q-28 29 -40.5 51t-12.5 41z" />
<glyph unicode="^" horiz-adv-x="2048" d="M438 938q0 20 20 48t77 85l288 291q9 8 24 25q80 83 173 83q95 0 187 -94q14 -15 22 -22l233 -236q25 -25 67 -65q87 -81 87 -117q0 -20 -13.5 -33.5t-33.5 -13.5q-22 0 -50 15t-77 54l-361 291q-30 24 -42 30.5t-21 6.5q-13 0 -39 -22q-8 -7 -13 -11l-358 -290 q-44 -37 -76 -55.5t-51 -18.5q-20 0 -31.5 13t-11.5 36z" />
<glyph unicode="_" d="M0 -365h1024v-118h-1024v118z" />
<glyph unicode="`" d="M248 1356q0 38 24 62t64 24q53 0 156 -116q37 -41 59 -64q20 -23 63 -58t43 -55q0 -17 -10.5 -25t-32.5 -8q-32 0 -101.5 27t-152.5 74q-56 30 -84 65t-28 74z" />
<glyph unicode="a" horiz-adv-x="1020" d="M84 293q0 155 126.5 248.5t340.5 93.5q35 0 74.5 -2.5t84.5 -7.5q2 9 2.5 18.5t0.5 22.5q0 104 -58.5 158.5t-169.5 54.5q-92 0 -151.5 -30.5t-96.5 -94.5q-36 9 -54.5 31t-18.5 57q0 73 92.5 120.5t241.5 47.5q183 0 274.5 -88.5t91.5 -264.5q0 -33 -3 -115t-3 -132 q0 -138 16.5 -222t53.5 -135q-39 -25 -71 -38t-56 -13q-43 0 -62.5 26.5t-22.5 85.5q-75 -64 -148.5 -95t-149.5 -31q-150 0 -242 84t-92 221zM250 307q0 -82 55 -129t152 -47q73 0 136.5 27.5t116.5 82.5q-2 50 -2.5 81.5t-0.5 60.5q0 18 1 56.5t0 58.5q-46 7 -82.5 10.5 t-62.5 3.5q-155 0 -234 -51.5t-79 -153.5z" />
<glyph unicode="b" horiz-adv-x="1143" d="M102 1423q49 24 84 34.5t62 10.5q45 0 62.5 -27t17.5 -104q0 -15 -6 -165.5t-8 -290.5q85 57 164.5 84.5t158.5 27.5q187 0 309.5 -128t122.5 -326q0 -236 -159.5 -393.5t-401.5 -157.5q-86 0 -179 22.5t-198 69.5q13 146 19 335t6 445q0 302 -12 404.5t-42 158.5z M309 467q0 -48 1 -105.5t4 -171.5q61 -33 117 -49t110 -16q156 0 257 111.5t101 285.5q0 152 -84 242t-225 90q-62 0 -130 -25t-147 -77v-6q-4 -187 -4 -279z" />
<glyph unicode="c" horiz-adv-x="868" d="M76 436q0 244 166 410t403 166q87 0 129.5 -25t42.5 -76q0 -26 -13 -50.5t-42 -53.5q-39 24 -76 34.5t-82 10.5q-152 0 -253 -109t-101 -276q0 -151 89.5 -239.5t242.5 -88.5q66 0 120 18t101 56q18 -25 27.5 -48t9.5 -44q0 -63 -73 -100t-198 -37q-219 0 -356 125.5 t-137 326.5z" />
<glyph unicode="d" horiz-adv-x="1186" d="M76 461q0 236 156 390.5t395 154.5q58 0 122.5 -13.5t135.5 -40.5v88q0 153 -12 244.5t-37 142.5q40 22 75 32.5t62 10.5q48 0 67 -25t19 -93q0 -43 -13.5 -296t-13.5 -464q0 -256 14.5 -372t49.5 -175q-44 -23 -80 -34t-66 -11q-40 0 -56.5 23t-16.5 79q0 19 0.5 29.5 t0.5 19.5q-78 -84 -162.5 -123.5t-187.5 -39.5q-199 0 -325.5 132t-126.5 341zM248 465q0 -156 84 -247t227 -91q93 0 170 41.5t145 127.5q2 98 3.5 209.5t1.5 125.5q0 76 -0.5 113t-2.5 69q-71 30 -132.5 44.5t-116.5 14.5q-175 0 -277 -109.5t-102 -297.5z" />
<glyph unicode="e" horiz-adv-x="1006" d="M76 483q0 232 136.5 379.5t350.5 147.5q165 0 271 -94t106 -240q0 -115 -88 -164t-299 -49q-79 0 -157.5 5.5t-155.5 16.5v-14q0 -156 92 -247t250 -91q74 0 137 19.5t115 58.5q22 -27 32.5 -50.5t10.5 -45.5q0 -54 -80.5 -88.5t-210.5 -34.5q-239 0 -374.5 130.5 t-135.5 360.5zM252 604q66 -11 145.5 -16.5t171.5 -5.5q125 0 167 23t42 83q0 91 -63 144t-172 53q-116 0 -193 -74t-98 -207z" />
<glyph unicode="f" horiz-adv-x="635" d="M55 874q0 15 5 31t14 31q10 0 25.5 -1t21.5 -1h78v22q0 246 92.5 377t265.5 131q69 0 111.5 -28.5t42.5 -73.5q0 -31 -23 -57t-65 -45q-23 27 -49 41t-54 14q-80 0 -116.5 -80.5t-36.5 -257.5v-33q35 4 80 6t94 2q32 0 48.5 -15.5t16.5 -47.5q0 -11 -4.5 -26.5 t-19.5 -49.5q-23 9 -59.5 12.5t-112.5 3.5q-18 0 -27.5 -0.5t-17.5 -1.5q0 -217 7 -447t7 -243q0 -81 -18 -109t-64 -28q-32 0 -69 12t-83 37q31 59 45.5 176t14.5 312q0 71 -4 246v36q-22 0 -51 -1t-37 -1q-28 0 -43 15t-15 42z" />
<glyph unicode="g" horiz-adv-x="1028" d="M47 -160q0 98 57.5 172.5t169.5 122.5q-24 22 -36.5 45t-12.5 49q0 33 20.5 70t61.5 80q-97 49 -145.5 121.5t-48.5 167.5q0 153 110.5 252.5t284.5 99.5q50 0 102 -15t107 -44q112 30 166 54.5t69 49.5q20 -21 29.5 -44t9.5 -48q0 -51 -38.5 -78.5t-131.5 -40.5 q36 -45 53 -90t17 -94q0 -139 -108 -232.5t-271 -93.5q-20 0 -42.5 1.5t-45.5 4.5q-19 -19 -29 -37.5t-10 -36.5q0 -69 192 -111q45 -10 70 -15q188 -44 254 -101.5t66 -163.5q0 -152 -136.5 -251t-351.5 -99q-200 0 -316 82.5t-116 222.5zM209 -129q0 -92 81 -148.5 t216 -56.5q131 0 212 50.5t81 129.5q0 119 -407 213q-13 3 -19 4h2q-83 -33 -124.5 -81.5t-41.5 -110.5zM270 682q0 -93 65.5 -153t168.5 -60q102 0 168.5 59.5t66.5 149.5q0 94 -63.5 151.5t-167.5 57.5q-107 0 -172.5 -56.5t-65.5 -148.5z" />
<glyph unicode="h" horiz-adv-x="1128" d="M117 1427q44 23 78.5 33t64.5 10q46 0 64 -27.5t18 -105.5q0 -11 -8.5 -155.5t-11.5 -282.5q79 54 155.5 81.5t149.5 27.5q167 0 260.5 -103.5t93.5 -288.5q0 -35 -3 -119.5t-3 -134.5q0 -135 11.5 -203.5t39.5 -113.5q-46 -23 -81 -34t-62 -11q-47 0 -64.5 23.5 t-17.5 93.5q0 46 6 172t6 207q0 203 -50 288.5t-167 85.5q-63 0 -126.5 -23t-147.5 -77q-4 -80 -5.5 -166t-1.5 -176q0 -166 11.5 -249t38.5 -136q-39 -22 -75 -32.5t-71 -10.5q-46 0 -63 24.5t-17 104.5q0 19 13.5 295t13.5 532q0 246 -11 333t-38 138z" />
<glyph unicode="i" horiz-adv-x="516" d="M121 950q37 22 76 33.5t77 11.5q46 0 63 -22.5t17 -83.5q0 -16 -9 -175t-9 -302q0 -134 13.5 -222t41.5 -145q-42 -23 -80 -34t-73 -11q-49 0 -66.5 26.5t-17.5 106.5q0 46 9 206t9 275q0 125 -12 203t-39 133zM127 1278q0 56 40 95.5t97 39.5q52 0 85.5 -32t33.5 -81 q0 -57 -40 -95t-101 -38q-53 0 -84 30t-31 81z" />
<glyph unicode="j" horiz-adv-x="541" d="M-63 -332q0 31 49 68q30 23 45 39q89 95 126.5 247t37.5 447q0 198 -13 314t-41 169q41 22 78 32.5t72 10.5q50 0 68 -29.5t18 -146.5v-37q0 -405 -19 -591.5t-63 -286.5q-53 -118 -149 -206.5t-152 -88.5q-26 0 -41.5 16.5t-15.5 42.5zM145 1278q0 56 40 95.5t98 39.5 q51 0 84.5 -32t33.5 -81q0 -57 -40 -95t-101 -38q-52 0 -83.5 30t-31.5 81z" />
<glyph unicode="k" horiz-adv-x="1028" d="M117 1427q43 22 78.5 32.5t64.5 10.5q47 0 64.5 -26.5t17.5 -104.5q0 -18 -5 -101q-22 -359 -22 -695q211 171 324 283t149 184q69 -25 97 -49t28 -56q0 -43 -254 -241q-113 -88 -180 -142q19 -18 55 -51q392 -371 459 -371h4q-9 -60 -35 -91.5t-67 -31.5q-67 0 -286 223 q-175 178 -297 287v-45q0 -162 13 -256t40 -143q-42 -22 -77 -32.5t-69 -10.5q-43 0 -61.5 28.5t-18.5 100.5q0 24 13.5 297t13.5 522q0 246 -11 338t-38 141z" />
<glyph unicode="l" horiz-adv-x="530" d="M125 1425q40 23 77 34t70 11q50 0 68 -25t18 -102q0 -64 -11 -336t-11 -479q0 -222 12.5 -324t42.5 -159q-42 -23 -78.5 -34t-68.5 -11q-48 0 -66 27.5t-18 103.5q0 95 11 361.5t11 439.5q0 214 -13 324.5t-44 168.5z" />
<glyph unicode="m" horiz-adv-x="1743" d="M117 991q23 8 44 11.5t44 3.5q54 0 84.5 -28.5t34.5 -82.5q79 54 154.5 80t150.5 26q73 0 137.5 -28.5t120.5 -85.5q79 57 168.5 89t171.5 32q179 0 274.5 -104t95.5 -298q0 -28 -3 -111t-3 -139q0 -129 12 -198.5t39 -112.5q-50 -24 -83.5 -34.5t-59.5 -10.5 q-47 0 -64.5 23.5t-17.5 91.5q0 62 7.5 199t7.5 210q0 180 -54.5 260t-175.5 80q-66 0 -127.5 -19.5t-132.5 -64.5q10 -61 14.5 -127.5t4.5 -185.5v-105q0 -138 10 -205.5t35 -113.5q-44 -23 -78 -33t-66 -10q-45 0 -62.5 25t-17.5 92q0 36 5.5 162.5t5.5 216.5 q0 212 -47.5 288t-163.5 76q-61 0 -124 -23.5t-130 -70.5q-2 -83 -5.5 -212.5t-3.5 -160.5q0 -133 12 -214.5t38 -135.5q-42 -22 -77 -32.5t-69 -10.5q-46 0 -63 26t-17 109q0 24 11.5 198.5t11.5 325.5q0 119 -12 199t-37 133z" />
<glyph unicode="n" horiz-adv-x="1151" d="M117 993q22 7 44.5 11t43.5 4q53 0 84 -29.5t35 -83.5q75 54 159 83.5t166 29.5q100 0 179.5 -43.5t121.5 -120.5q29 -53 41.5 -123.5t12.5 -214.5q0 -15 -1.5 -71t-1.5 -97q0 -103 13.5 -177t40.5 -116q-47 -23 -81.5 -34t-62.5 -11q-47 0 -65.5 24.5t-18.5 92.5 q0 41 6.5 176.5t6.5 230.5q0 181 -55 262.5t-177 81.5q-62 0 -134 -25.5t-146 -74.5q-2 -110 -5.5 -236.5t-2.5 -142.5q0 -130 11.5 -211t37.5 -135q-42 -22 -77 -32.5t-69 -10.5q-46 0 -63 26t-17 109q0 18 10.5 185.5t10.5 316.5q0 141 -11 218t-36 138z" />
<glyph unicode="o" horiz-adv-x="1229" d="M76 485q0 238 156 386.5t405 148.5q225 0 370.5 -141t145.5 -357q0 -87 -27.5 -172t-74.5 -145q-89 -115 -201.5 -172.5t-249.5 -57.5q-232 0 -378 143t-146 367zM248 485q0 -159 103 -262.5t261 -103.5q162 0 265.5 108.5t103.5 278.5q0 166 -101.5 270.5t-263.5 104.5 q-165 0 -266.5 -108.5t-101.5 -287.5z" />
<glyph unicode="p" horiz-adv-x="1190" d="M117 979q22 7 43 10.5t45 3.5q51 0 80 -29t31 -81q73 53 157.5 81.5t165.5 28.5q203 0 339 -135t136 -336q0 -216 -153.5 -369t-368.5 -153q-82 0 -148.5 19.5t-128.5 61.5q-1 -21 -1.5 -46t-0.5 -72q0 -135 12.5 -221.5t39.5 -140.5q-44 -23 -78 -33t-66 -10 q-44 0 -62 25t-18 91q0 70 13.5 345t13.5 481q0 216 -12 315.5t-39 163.5zM320 223q64 -42 131 -64t135 -22q156 0 257 101.5t101 257.5q0 162 -92.5 260t-245.5 98q-65 0 -137 -25.5t-143 -74.5q-2 -94 -3.5 -226.5t-2.5 -304.5z" />
<glyph unicode="q" horiz-adv-x="1161" d="M76 461q0 241 159.5 394t411.5 153q52 0 155.5 -13.5t155.5 -13.5q4 0 32 1.5t52 2.5q-17 -117 -24.5 -256t-7.5 -358q0 -336 17 -514.5t54 -253.5q-41 -22 -77 -32.5t-66 -10.5q-49 0 -67.5 26t-18.5 99q0 13 1 68q3 207 3 392q-79 -81 -159 -119t-173 -38 q-195 0 -321.5 133t-126.5 340zM238 465q0 -154 84 -246t225 -92q89 0 165 41.5t146 128.5q0 27 1 79q3 211 3 290q0 42 -0.5 87t-1.5 93q-65 14 -118.5 21t-98.5 7q-191 0 -298 -108t-107 -301z" />
<glyph unicode="r" horiz-adv-x="739" d="M121 981q20 7 39.5 10.5t40.5 3.5q58 0 86 -27.5t28 -84.5q0 -13 -1.5 -35.5t-4.5 -60.5q75 105 143 156.5t134 51.5q56 0 95.5 -35.5t39.5 -87.5q0 -34 -22.5 -66.5t-67.5 -64.5q-16 44 -39.5 65t-56.5 21q-49 0 -103 -48.5t-106 -139.5q-5 -45 -8 -91.5t-3 -90.5 q0 -150 16.5 -250t51.5 -164q-40 -21 -78.5 -32t-75.5 -11q-49 0 -67.5 24.5t-18.5 98.5q0 27 10.5 207.5t10.5 335.5q0 127 -10 195t-33 120z" />
<glyph unicode="s" horiz-adv-x="702" d="M109 61q0 19 8 42t26 57q36 -19 69 -28t64 -9q72 0 116 34.5t44 90.5q0 44 -24 82t-90 92q-11 8 -30 24q-169 140 -169 248q0 44 17 88t50 84q63 75 147.5 114.5t182.5 39.5q48 0 73 -18.5t25 -53.5q0 -17 -9 -40.5t-30 -59.5q-27 11 -51 16.5t-47 5.5 q-83 0 -134.5 -40.5t-51.5 -104.5q0 -70 139 -189q35 -30 53 -47q59 -52 87 -102.5t28 -103.5q0 -125 -110.5 -215.5t-268.5 -90.5q-55 0 -84.5 22t-29.5 62z" />
<glyph unicode="t" horiz-adv-x="678" d="M47 850q0 13 4.5 30.5t14.5 39.5q8 0 27 -1t30 -1q26 0 83 3q7 0 11 1q0 11 1 33t1 32q0 78 -10 137.5t-31 104.5q43 21 77 32t58 11q41 0 59.5 -25.5t18.5 -83.5q0 -25 -9 -157q-3 -49 -5 -78q58 8 104.5 12t83.5 4q33 0 47.5 -12t14.5 -39q0 -15 -9 -37.5t-26 -50.5 q-26 6 -55 9t-70 3q-7 0 -42 -1.5t-60 -2.5q-9 -156 -13 -257t-4 -165q0 -139 24.5 -194.5t82.5 -55.5q16 0 33.5 6t35.5 19q9 -20 13 -35t4 -27q0 -49 -40.5 -80.5t-105.5 -31.5q-108 0 -160.5 71.5t-52.5 219.5q0 42 10 222.5t15 296.5q-17 0 -47 -1.5t-39 -1.5 q-41 0 -57.5 11.5t-16.5 39.5z" />
<glyph unicode="u" horiz-adv-x="1118" d="M96 954q45 22 78.5 32.5t56.5 10.5q47 0 64.5 -23.5t17.5 -86.5q0 -50 -8 -191.5t-8 -232.5q0 -191 46 -264.5t159 -73.5q83 0 153.5 40t137.5 126q4 64 6 134.5t2 154.5q0 136 -13.5 227.5t-42.5 144.5q45 23 80 34t64 11q44 0 61 -28t17 -121q0 -44 -5.5 -193.5 t-5.5 -255.5q0 -148 12.5 -228.5t41.5 -125.5q-50 -24 -83 -34.5t-57 -10.5q-43 0 -59 29.5t-16 115.5q-68 -83 -146 -122t-176 -39q-165 0 -252.5 99.5t-87.5 287.5q0 40 5 147.5t5 175.5q0 91 -11 152.5t-36 107.5z" />
<glyph unicode="v" horiz-adv-x="1104" d="M18 862q41 70 75.5 102.5t66.5 32.5q46 0 83.5 -61.5t110.5 -286.5q11 -33 31 -95q118 -372 145 -372q18 0 59 54t89 143q84 154 123 272.5t39 216.5q0 31 -5.5 60t-15.5 57q20 6 40 9t42 3q68 0 97.5 -24.5t29.5 -79.5q0 -100 -65.5 -259.5t-188.5 -354.5 q-106 -169 -168.5 -230t-118.5 -61q-90 0 -182 289q-32 98 -51 155q-61 182 -117.5 284.5t-118.5 145.5z" />
<glyph unicode="w" horiz-adv-x="1683" d="M8 905q34 46 69.5 71t65.5 25q64 0 126 -219q25 -84 40 -135q64 -204 115.5 -329t71.5 -125t95 149t126 336q16 58 34 150q31 157 97 157q63 0 106 -200q13 -60 21 -95q47 -202 105 -349.5t81 -147.5q8 0 36 39t63 100q91 162 135.5 294.5t44.5 241.5q0 33 -5.5 61.5 t-17.5 57.5q29 8 49.5 11t38.5 3q57 0 86 -28.5t29 -83.5q0 -109 -77 -293.5t-214 -394.5q-66 -102 -118 -155.5t-85 -53.5q-60 0 -129 160t-159 510q-97 -303 -198.5 -486.5t-166.5 -183.5q-30 0 -79 75t-109 216q-50 116 -123 307q-102 269 -154 315z" />
<glyph unicode="x" horiz-adv-x="1038" d="M72 61q0 87 309 387l53 52q-153 205 -236.5 294.5t-121.5 92.5q18 59 48 90t69 31q53 0 179 -184q96 -140 165 -228q139 152 193 232.5t54 129.5q0 7 -1 13.5t-3 13.5q38 14 58 18.5t36 4.5q43 0 65 -19.5t22 -56.5q0 -78 -340 -418l-17 -16q29 -37 80 -104 q219 -288 266 -288h2q-15 -58 -43.5 -88t-68.5 -30q-58 0 -189 195q-86 128 -145 208q-141 -150 -195.5 -227t-54.5 -123q0 -8 3 -27q1 -4 1 -6q-32 -11 -55.5 -15.5t-42.5 -4.5q-48 0 -69 17t-21 56z" />
<glyph unicode="y" horiz-adv-x="1069" d="M16 819q20 82 57 129t80 47q31 0 51 -14.5t39 -53.5q5 -10 105 -252.5t210 -471.5q138 291 206.5 468t68.5 244q0 13 -2.5 25t-5.5 23q7 2 22 7q73 25 104 25q36 0 57 -20t21 -53q0 -43 -141.5 -336t-241.5 -537q-30 -73 -77 -195q-106 -276 -169 -276q-33 0 -70 30.5 t-73 86.5q51 41 93.5 100.5t82.5 147.5l33 69q-215 504 -300.5 650t-149.5 157z" />
<glyph unicode="z" horiz-adv-x="920" d="M61 72q0 32 199.5 289t357.5 489q-29 1 -78 2q-79 2 -102 2q-112 0 -193 -10t-118 -29q-11 30 -17 54.5t-6 41.5q0 44 27.5 62t99.5 18q58 0 183.5 -3t193.5 -3q91 0 133.5 3.5t75.5 10.5q18 -21 26.5 -40t8.5 -37q0 -47 -202.5 -306.5t-348.5 -472.5q13 0 38 -1 q55 -3 71 -3h45q158 0 242.5 8.5t135.5 28.5q9 -23 14 -44.5t5 -37.5q0 -49 -40.5 -71.5t-131.5 -22.5q-4 0 -136.5 4t-260.5 4q-51 0 -96 -3t-89 -9q-18 17 -27.5 35.5t-9.5 40.5z" />
<glyph unicode="{" horiz-adv-x="721" d="M41 539q0 26 13.5 39t58.5 20q94 15 138 71t44 160v265q0 184 64.5 267t207.5 83q72 0 111 -17t39 -49q0 -41 -74 -43q-33 -1 -50 -4q-73 -14 -104.5 -60t-31.5 -138v-207q0 -201 -50.5 -280t-181.5 -107q124 -6 178 -72t54 -211q0 -81 -1 -181.5t-1 -119.5 q0 -102 35 -153t106 -54q9 0 25 -1q95 -4 96 -44q0 -32 -29.5 -47.5t-87.5 -15.5q-170 0 -237.5 75.5t-67.5 268.5q0 31 2 91.5t2 90.5q0 156 -31.5 217.5t-109.5 83.5q-14 4 -37 9q-80 18 -80 63z" />
<glyph unicode="|" d="M449 -483v2048h126v-2048h-126z" />
<glyph unicode="}" horiz-adv-x="721" d="M4 -297q1 40 94 44q16 1 24 1q75 3 108.5 56t33.5 169q0 6 -1 100t-1 183q0 145 54 211t178 72q-128 27 -180 104t-52 244q0 35 1 104.5t1 104.5q0 105 -23.5 156t-78.5 69q-28 9 -80 12q-78 5 -78 45q0 33 38 49.5t112 16.5q141 0 205.5 -83t64.5 -267v-265 q0 -103 44 -158.5t140 -72.5q4 -1 9 -1q59 -10 59 -58q0 -45 -74 -61l-2 -1q-106 -25 -142 -82t-36 -223q0 -29 2 -92t2 -96q0 -193 -68 -268.5t-239 -75.5q-59 0 -87 15t-28 48z" />
<glyph unicode="~" horiz-adv-x="1706" d="M156 537q0 17 8.5 35.5t23.5 33.5q70 73 170 113.5t211 40.5q54 0 111 -10.5t119 -30.5q23 -8 69 -26q182 -70 285 -70q107 0 211 60t121 60q33 0 53.5 -18t20.5 -49q0 -76 -124 -142.5t-284 -66.5q-45 0 -84.5 5t-73.5 15q-49 15 -141 47q-192 66 -285 66 q-96 0 -207 -63.5t-133 -63.5q-32 0 -51.5 17.5t-19.5 46.5z" />
<glyph unicode="&#xa1;" horiz-adv-x="616" d="M164 1280q0 54 42.5 92.5t104.5 38.5q57 0 93 -35.5t36 -89.5q0 -60 -40 -97.5t-105 -37.5q-60 0 -95.5 35t-35.5 94zM184 72q0 56 31 300t31 431q0 60 -7.5 103.5t-23.5 80.5q21 13 38 19t34 6q59 0 85.5 -61.5t26.5 -202.5q0 -63 -6 -201t-6 -211q0 -105 12 -177 t37 -130q-48 -30 -88 -45t-72 -15q-45 0 -68.5 26t-23.5 77z" />
<glyph unicode="&#xa2;" horiz-adv-x="1165" d="M133 496q0 186 112 318t314 186q-1 25 -1.5 52t-0.5 81q0 97 14.5 127t53.5 30q19 0 42.5 -9t51.5 -28q-15 -58 -23 -116t-8 -115q4 0 11 1q45 3 67 3q95 0 141.5 -26t46.5 -78q0 -28 -12 -53.5t-39 -53.5q-47 26 -97 38.5t-106 12.5q-180 0 -289.5 -97.5t-109.5 -256.5 q0 -156 103 -254t268 -98q66 0 126.5 14.5t119.5 44.5q16 -23 24 -44.5t8 -39.5q0 -63 -69 -99t-191 -36q0 -39 1 -87.5t1 -57.5q0 -70 -15.5 -96.5t-53.5 -26.5q-20 0 -45 10.5t-54 32.5q19 55 28 113.5t9 119.5q-202 40 -315 168.5t-113 319.5z" />
<glyph unicode="&#xa3;" horiz-adv-x="1165" d="M102 80q0 45 28.5 63.5t98.5 18.5q7 0 32.5 -2t37.5 -2q39 41 57.5 86.5t18.5 97.5q0 36 -11 84t-34 116q-41 -2 -73 -3.5t-54 -1.5q-53 0 -75 14.5t-22 48.5q0 12 5.5 28t17.5 40q14 -1 29.5 -1.5t46.5 -0.5q32 0 47.5 0.5t27.5 1.5q-14 56 -21 99t-7 79 q0 133 63.5 254.5t176.5 202.5q92 67 206 103t238 36q93 0 134.5 -24.5t41.5 -78.5q0 -20 -8.5 -44.5t-26.5 -57.5q-44 17 -87.5 25t-90.5 8q-214 0 -344.5 -109.5t-130.5 -288.5q0 -39 9 -88.5t28 -109.5q55 3 145 8q124 8 158 8q50 0 72 -15.5t22 -49.5q0 -19 -6.5 -39.5 t-20.5 -44.5q-35 6 -90 10t-120 4q-16 0 -70 -2q-32 -1 -51 -2q15 -48 22.5 -89.5t7.5 -76.5q0 -66 -20.5 -124t-62.5 -113q40 -4 78 -5.5t73 -1.5q151 0 262 19t180 57q20 -30 29.5 -59t9.5 -58q0 -64 -52.5 -90t-188.5 -26q-101 0 -264.5 11t-227.5 11q-69 0 -120 -5 t-95 -15q-14 25 -21.5 49t-7.5 45z" />
<glyph unicode="&#xa4;" horiz-adv-x="1204" d="M66 436q0 41 113 150q42 41 67 65q-41 61 -61.5 124.5t-20.5 129.5t19.5 128t60.5 122l-62 62q-116 115 -116 155q0 29 18.5 46.5t50.5 17.5q24 0 64 -32.5t145 -146.5q61 43 124 63.5t132 20.5q68 0 132 -20.5t126 -63.5q24 24 64 65q112 114 153 114q28 0 46 -18 t18 -46q0 -42 -124 -161q-36 -34 -57 -54q41 -62 60.5 -124.5t19.5 -129.5q0 -66 -19.5 -127.5t-60.5 -124.5q28 -28 76 -73q105 -101 105 -142q0 -29 -19 -47t-51 -18q-36 0 -145 112q-41 43 -66 68q-61 -43 -124.5 -63.5t-133.5 -20.5t-132 20.5t-120 63.5 q-24 -23 -65 -65q-114 -113 -154 -113q-28 0 -45.5 18t-17.5 45zM309 905q0 -124 85 -209.5t208 -85.5t208 86t85 209t-85 208t-208 85t-208 -85t-85 -208z" />
<glyph unicode="&#xa5;" horiz-adv-x="1260" d="M49 639q0 18 9.5 40t31.5 52q42 -15 108 -22t173 -7q35 0 57 0.5t45 2.5l-104 165q-101 -6 -137 -8t-54 -2q-79 0 -104 13.5t-25 48.5q0 14 12 37t33 51q34 -14 72.5 -20.5t93.5 -6.5h31q-72 124 -131.5 191t-102.5 73q24 83 55.5 123.5t71.5 40.5q24 0 43.5 -13.5 t40.5 -47.5q8 -13 38 -69q155 -290 323 -562q192 292 268 433t76 200q0 10 -1 18.5t-3 17.5q9 3 27 8q57 15 73 15q42 0 64 -17.5t22 -52.5q0 -33 -26.5 -87t-96.5 -158l-67 -101q27 1 78.5 3.5t72.5 2.5q45 0 66.5 -16t21.5 -49q0 -20 -8 -38t-29 -42q-44 12 -90 18.5 t-96 6.5q-14 0 -58 -3q-24 -1 -38 -1l-115 -166q97 3 172.5 5.5t101.5 2.5q99 0 129.5 -15.5t30.5 -54.5q0 -16 -8 -36t-25 -42q-54 13 -129 19t-200 6q-53 0 -78 -0.5t-47 -1.5q-1 -25 -2.5 -69t-1.5 -56q0 -154 11.5 -261t33.5 -161q-45 -24 -83.5 -35.5t-72.5 -11.5 q-49 0 -66.5 26t-17.5 121q0 10 3 102t3 175q0 9 -1.5 65.5t-2.5 102.5q-146 -6 -234 -9t-114 -3q-69 0 -96 13.5t-27 45.5z" />
<glyph unicode="&#xa6;" d="M449 -350v758h126v-758h-126zM449 674v758h126v-758h-126z" />
<glyph unicode="&#xa7;" d="M158 584q0 102 72 187.5t204 139.5q-76 50 -113.5 107t-37.5 123q0 59 31.5 117.5t88.5 107.5q62 51 132 77.5t141 26.5q56 0 83 -18.5t27 -56.5q0 -20 -10 -45.5t-31 -59.5q-25 12 -48 17.5t-46 5.5q-83 0 -137.5 -39.5t-54.5 -97.5q0 -44 34.5 -89.5t151.5 -140.5 q3 -2 8 -6q215 -176 215 -307q0 -105 -72 -190t-206 -136q93 -69 135.5 -131t42.5 -129q0 -128 -116 -219.5t-283 -91.5q-66 0 -98.5 23t-32.5 71q0 20 9 44.5t27 53.5q38 -19 75.5 -29t76.5 -10q78 0 127 35t49 88q0 74 -210 249q-22 18 -34 28q-1 1 -5 4 q-195 165 -195 291zM305 610q0 -58 49 -111.5t158 -113.5q101 41 152 96.5t51 124.5q0 55 -46 106t-159 119q-98 -36 -151.5 -93.5t-53.5 -127.5z" />
<glyph unicode="&#xa8;" d="M223 1270q0 49 35 81.5t88 32.5q50 0 81.5 -29.5t31.5 -76.5q0 -49 -35.5 -81t-89.5 -32q-50 0 -80.5 29t-30.5 76zM569 1270q0 49 34 81.5t83 32.5q52 0 84.5 -29.5t32.5 -76.5q0 -49 -35 -81t-90 -32q-49 0 -79 28.5t-30 76.5z" />
<glyph unicode="&#xa9;" horiz-adv-x="1683" d="M137 678q0 105 30 204t89 187q100 149 255 232t333 83q101 0 204 -32.5t193 -94.5q143 -97 224 -250.5t81 -328.5q0 -121 -42 -237.5t-120 -211.5q-101 -123 -242 -189.5t-300 -66.5q-105 0 -206 30.5t-187 88.5q-149 99 -230.5 252.5t-81.5 333.5zM254 676 q0 -120 43.5 -226.5t126.5 -189.5q84 -82 193 -127t225 -45q105 0 193 28.5t163 86.5q111 86 171.5 209.5t60.5 263.5q0 88 -25.5 171.5t-75.5 158.5q-83 123 -211.5 191.5t-277.5 68.5q-88 0 -171 -25.5t-157 -75.5q-123 -81 -190.5 -209t-67.5 -280zM444 657 q0 206 151 337.5t382 131.5q80 0 120 -18.5t40 -56.5q0 -18 -11.5 -45t-31.5 -56q-29 16 -65.5 23.5t-86.5 7.5q-154 0 -250 -85.5t-96 -221.5q0 -129 90.5 -213t228.5 -84q48 0 92.5 12t92.5 37q25 -30 36 -52t11 -42q0 -42 -60.5 -68t-160.5 -26q-211 0 -346.5 118.5 t-135.5 300.5z" />
<glyph unicode="&#xaa;" horiz-adv-x="649" d="M37 1047q0 100 83 154t238 54q6 0 32 -1.5t44 -2.5v15q0 54 -33.5 82t-99.5 28q-56 0 -93 -17.5t-56 -53.5q-30 3 -48 19.5t-18 39.5q0 48 60 77t161 29q124 0 183 -54.5t59 -170.5q0 -3 -1 -45.5t-1 -81.5q0 -77 11 -124t36 -83q-36 -18 -60.5 -26t-39.5 -8 q-23 0 -36.5 13t-19.5 42q-44 -32 -89 -48t-93 -16q-97 0 -158 50.5t-61 128.5zM41 723q0 35 26 50t87 15q45 0 130 -5t124 -5q60 0 105.5 6.5t76.5 18.5q15 -23 21.5 -40t6.5 -30q0 -36 -26 -51.5t-86 -15.5q-46 0 -122.5 5t-107.5 5q-77 0 -128.5 -6t-77.5 -19 q-16 26 -22.5 42.5t-6.5 29.5zM162 1061q0 -44 31.5 -68t89.5 -24q41 0 77.5 14t71.5 43q-1 30 -1.5 57t-0.5 52v26q-21 3 -41.5 4.5t-40.5 1.5q-92 0 -139 -27t-47 -79z" />
<glyph unicode="&#xab;" horiz-adv-x="758" d="M76 498q0 35 22 76t70 92q36 39 67.5 60.5t53.5 21.5q19 0 31 -11.5t12 -29.5q0 -14 -42 -85t-42 -124q0 -57 42 -127.5t42 -83.5q0 -18 -12 -29.5t-31 -11.5q-22 0 -53.5 21.5t-67.5 60.5q-48 51 -70 92t-22 78zM414 498q0 36 22 77.5t68 90.5q38 39 70 60.5t53 21.5 q19 0 31 -11.5t12 -29.5q0 -14 -42 -85t-42 -124q0 -57 42 -127.5t42 -83.5q0 -19 -12 -30t-31 -11q-21 0 -53 21t-70 61q-47 50 -68.5 91t-21.5 79z" />
<glyph unicode="&#xac;" horiz-adv-x="1706" d="M240 784q0 35 25 54.5t69 19.5h1012q50 0 78 -28t28 -78v-316q0 -44 -19.5 -69t-54.5 -25q-33 0 -55.5 26t-22.5 66v244q0 17 -8.5 26t-23.5 9h-936q-39 0 -65.5 20.5t-26.5 50.5z" />
<glyph unicode="&#xad;" horiz-adv-x="631" d="M76 473q0 67 33 98t106 31q34 0 114 -8t126 -8q26 0 50.5 4.5t45.5 13.5q1 -15 2.5 -34t1.5 -21q0 -67 -33.5 -98t-105.5 -31q-40 0 -115.5 9t-112.5 9q-31 0 -58 -5t-52 -15q-1 11 -1.5 23.5t-0.5 31.5z" />
<glyph unicode="&#xae;" horiz-adv-x="1683" d="M137 678q0 142 53 269.5t154 228.5q104 102 231.5 155t268.5 53q118 0 237.5 -43.5t206.5 -117.5q127 -109 192.5 -247.5t65.5 -297.5q0 -141 -54 -270t-155 -230q-100 -100 -226.5 -152.5t-268.5 -52.5q-144 0 -272 53t-228 152q-100 100 -152.5 228t-52.5 272zM254 676 q0 -120 43.5 -225.5t126.5 -188.5q83 -82 190 -126t228 -44q119 0 225.5 44.5t192.5 129.5q82 83 126 188t44 222q0 120 -44.5 227t-130.5 193q-83 83 -189 126.5t-226 43.5q-118 0 -225.5 -44.5t-190.5 -127.5t-126.5 -190t-43.5 -228zM551 1116q92 3 180 8l88 6 q132 0 207.5 -65t75.5 -178q0 -86 -38.5 -148.5t-119.5 -107.5q38 -33 101 -102q117 -127 198 -154q-21 -53 -46.5 -81t-51.5 -28q-47 0 -159 134q-65 77 -107 122q-33 36 -59 50t-58 14q-5 0 -12.5 -1t-22.5 -4q0 -85 9.5 -151.5t29.5 -118.5q-35 -19 -61.5 -28t-49.5 -9 q-37 0 -52 21.5t-15 77.5q0 6 1 41q5 178 5 354q0 153 -10 228.5t-33 119.5zM725 684h12q107 0 166.5 49t59.5 137q0 67 -43 104.5t-119 37.5q-13 0 -30 -2.5t-36 -5.5q-6 -110 -10 -308v-12z" />
<glyph unicode="&#xaf;" d="M201 1233q0 46 32 67t103 21q20 0 123.5 -5t187.5 -5q48 0 82 5t64 15q19 -27 27.5 -48.5t8.5 -41.5q0 -41 -30.5 -61.5t-93.5 -20.5q-37 0 -144 4t-178 4q-48 0 -82 -4.5t-63 -15.5q-19 26 -28 47.5t-9 38.5z" />
<glyph unicode="&#x2c9;" d="M201 1233q0 46 32 67t103 21q20 0 123.5 -5t187.5 -5q48 0 82 5t64 15q19 -27 27.5 -48.5t8.5 -41.5q0 -41 -30.5 -61.5t-93.5 -20.5q-37 0 -144 4t-178 4q-48 0 -82 -4.5t-63 -15.5q-19 26 -28 47.5t-9 38.5z" />
<glyph unicode="&#xb0;" horiz-adv-x="674" d="M55 1155q0 120 81.5 201.5t201.5 81.5q118 0 200.5 -82.5t82.5 -200.5t-82.5 -200.5t-202.5 -82.5q-119 0 -200 81.5t-81 201.5zM162 1157q0 -75 50.5 -126.5t123.5 -51.5q75 0 126.5 50.5t51.5 123.5q0 75 -51 125.5t-125 50.5q-80 0 -128 -47t-48 -125z" />
<glyph unicode="&#xb1;" horiz-adv-x="1706" d="M248 100q0 35 25.5 55.5t68.5 20.5h1026q38 0 64 -22t26 -54q0 -37 -24.5 -56t-71.5 -19h-1024q-41 0 -65.5 20.5t-24.5 54.5zM248 778q0 36 25 56t69 20h436v240q0 44 20 69t56 25q33 0 53.5 -25t20.5 -65v-244h438q39 0 65.5 -22.5t26.5 -55.5q0 -35 -24.5 -54.5 t-69.5 -19.5h-436v-239q0 -44 -20 -69t-54 -25t-55 25t-21 67v241h-438q-38 0 -65 23t-27 53z" />
<glyph unicode="&#xb2;" horiz-adv-x="768" d="M70 637q0 64 135 161l30 21q165 120 228 199t63 158q0 65 -42.5 102t-118.5 37q-62 0 -106.5 -32t-74.5 -97q-37 21 -54 45t-17 53q0 64 72 109t182 45q138 0 220.5 -70t82.5 -186q0 -114 -104.5 -233.5t-325.5 -258.5l74 -4q52 -2 77 -2q87 0 146.5 12t107.5 39 q14 -33 20.5 -55t6.5 -37q0 -44 -30.5 -62t-109.5 -18q-48 0 -161.5 3t-177.5 3q-23 0 -48 -2t-53 -6q-12 23 -17 40.5t-5 35.5z" />
<glyph unicode="&#xb3;" horiz-adv-x="768" d="M72 627q0 19 12 41.5t39 50.5q33 -26 69.5 -37.5t83.5 -11.5q104 0 170 43.5t66 107.5q0 56 -51.5 85.5t-163.5 37.5q-10 1 -27 2q-102 7 -102 55q0 43 98 59q47 8 74 15q76 21 118 56t42 77q0 48 -43 75.5t-119 27.5q-51 0 -94 -16.5t-74 -47.5q-32 19 -45.5 37.5 t-13.5 40.5q0 47 65.5 80t167.5 33q138 0 222.5 -60t84.5 -155q0 -67 -49 -120.5t-141 -86.5q106 -22 155.5 -68t49.5 -123q0 -117 -123.5 -198.5t-306.5 -81.5q-86 0 -125 19.5t-39 62.5z" />
<glyph unicode="&#xb4;" d="M356 1149q0 20 43 55t64 58q21 22 57 63q105 117 158 117q41 0 65.5 -23.5t24.5 -62.5q0 -37 -29 -72t-86 -67q-80 -47 -149.5 -74t-102.5 -27q-23 0 -34 8t-11 25z" />
<glyph unicode="&#xb5;" horiz-adv-x="1151" d="M-113 -428l318 1499h180l-129 -600q-7 -32 -10.5 -64.5t-3.5 -68.5q0 -99 52 -153t148 -54q132 0 208.5 92.5t123.5 311.5l115 536h178l-156 -732q-1 -6 -4 -20q-18 -87 -18 -112q0 -37 16.5 -52.5t55.5 -15.5q12 0 18.5 0.5t13.5 1.5l-31 -143q-24 -5 -50 -7.5t-58 -2.5 q-63 0 -97 29t-52 100q-45 -66 -112.5 -98.5t-158.5 -32.5q-82 0 -143 27.5t-113 88.5l-110 -530h-181z" />
<glyph unicode="&#xb6;" horiz-adv-x="1268" d="M76 858q0 154 61 277.5t174 199.5q81 54 174.5 81.5t192.5 27.5q48 0 174.5 -13.5t204.5 -13.5q9 0 36 3q12 1 19 1q-19 -168 -29 -361t-10 -415q0 -358 20.5 -553t67.5 -305q-43 -25 -83 -38t-74 -13q-53 0 -74 28.5t-21 104.5q0 7 5.5 174.5t7.5 330.5 q-91 -30 -169.5 -45.5t-146.5 -15.5q-235 0 -382.5 151.5t-147.5 393.5zM453 887q0 -184 82.5 -298t212.5 -114q33 0 73.5 6.5t93.5 20.5v786q-58 9 -93.5 13t-57.5 4q-150 0 -230.5 -108.5t-80.5 -309.5z" />
<glyph unicode="&#xb7;" horiz-adv-x="584" d="M154 719q0 60 38.5 98.5t98.5 38.5t98.5 -38.5t38.5 -98.5q0 -59 -39 -97t-98 -38q-60 0 -98.5 38t-38.5 97z" />
<glyph unicode="&#xb8;" d="M358 -383q0 7 2.5 18t8.5 33q14 -4 25.5 -6t21.5 -2q52 0 85.5 25t33.5 61q0 25 -13 37t-61 20q-54 10 -69 24t-15 42q0 29 27.5 70t93.5 106h92q-37 -40 -56.5 -71t-19.5 -50q0 -26 46 -38l9 -3q58 -15 79.5 -39.5t21.5 -70.5q0 -89 -70 -150t-172 -61q-35 0 -52.5 13.5 t-17.5 41.5z" />
<glyph unicode="&#xb9;" horiz-adv-x="768" d="M190 1311q0 13 5 30.5t16 42.5q53 5 126.5 29.5t96.5 24.5q29 0 42 -16.5t13 -51.5q0 -7 -2 -42q-16 -222 -16 -454q0 -121 9.5 -180t31.5 -100q-38 -20 -67.5 -29.5t-51.5 -9.5q-44 0 -62 20.5t-18 73.5q0 17 7.5 194t7.5 337v30q0 2 -1.5 26.5t-3.5 47.5 q-27 -13 -48.5 -20t-34.5 -7q-24 0 -37 14t-13 40z" />
<glyph unicode="&#xba;" horiz-adv-x="774" d="M39 1155q0 139 101 227t261 88q147 0 240.5 -82.5t93.5 -209.5q0 -136 -103.5 -230t-254.5 -94q-150 0 -244 84.5t-94 216.5zM96 719q0 35 26 50t87 15q21 0 103 -5t143 -5q66 0 112 6t78 19q15 -23 22 -40t7 -30q0 -35 -26.5 -51t-86.5 -16q-36 0 -112.5 5t-116.5 5 q-76 0 -125 -6t-82 -19q-15 26 -22 42.5t-7 29.5zM170 1165q0 -91 60 -147.5t157 -56.5q96 0 156.5 57.5t60.5 148.5q0 89 -57.5 144t-151.5 55q-101 0 -163 -55.5t-62 -145.5z" />
<glyph unicode="&#xbb;" horiz-adv-x="758" d="M90 287q0 15 42 85.5t42 123.5q0 55 -42 126t-42 85q0 18 11 29.5t28 11.5q24 0 56 -21t69 -61q48 -51 70 -92t22 -78q0 -35 -23 -77t-69 -91q-37 -40 -69 -61t-56 -21q-17 0 -28 11.5t-11 29.5zM426 287q0 15 42 85.5t42 123.5q0 55 -42 126t-42 85q0 18 11 29.5 t28 11.5q24 0 57 -21.5t70 -60.5q46 -51 68 -93t22 -77q0 -37 -22.5 -78.5t-67.5 -89.5q-37 -40 -70 -61t-57 -21q-17 0 -28 11.5t-11 29.5z" />
<glyph unicode="&#xbc;" horiz-adv-x="1796" d="M109 1307q0 15 4.5 32t15.5 41q53 4 129.5 29t101.5 25q31 0 44.5 -17t13.5 -55q0 -18 -11.5 -180.5t-11.5 -304.5q0 -113 11 -177.5t36 -107.5q-39 -17 -72 -26t-59 -9q-40 0 -56.5 21t-16.5 73q0 10 7 185t7 342v30q0 3 -1.5 28t-2.5 46q-42 -16 -60.5 -21.5 t-29.5 -5.5q-24 0 -36.5 13.5t-12.5 38.5zM313 39q0 66 253 419q185 260 300 431q157 233 225.5 359.5t86.5 205.5q18 3 36 4.5t37 1.5q42 0 66 -18.5t24 -50.5q0 -58 -252 -414q-83 -117 -131 -184q-248 -355 -360 -544.5t-125 -274.5q-18 -4 -32 -5.5t-25 -1.5 q-48 0 -75.5 19t-27.5 53zM985 340q0 57 159 222q51 54 81 85q36 39 97 107q156 174 216 174q29 0 42 -19t13 -61q0 -6 -2 -36q-16 -208 -16 -433q38 1 71.5 8t63.5 21q13 -25 20 -45t7 -33q0 -40 -27.5 -59t-83.5 -19q-12 0 -24.5 0.5t-26.5 1.5q0 -65 2 -133v-19 q0 -53 -15.5 -77.5t-50.5 -24.5q-21 0 -49 8.5t-71 28.5q21 45 32 98.5t11 120.5q-109 0 -227 2h-33q-53 0 -82.5 -3t-57.5 -9q-27 27 -38 48.5t-11 45.5zM1123 375q41 -3 76.5 -4.5t66.5 -1.5q45 0 88.5 1t93.5 3v12q4 172 4 254v94q-87 -95 -204.5 -219t-124.5 -139z" />
<glyph unicode="&#xbd;" horiz-adv-x="1796" d="M96 1307q0 15 4.5 31.5t16.5 41.5q53 4 129 29t102 25q30 0 44 -17t14 -55q0 -18 -11.5 -180.5t-11.5 -304.5q0 -113 11 -177.5t36 -107.5q-39 -17 -72 -26t-59 -9q-41 0 -58.5 21.5t-17.5 72.5q0 10 8.5 185t8.5 342v30q0 3 -1.5 28t-3.5 46q-42 -16 -60.5 -21.5 t-29.5 -5.5q-23 0 -36 13.5t-13 38.5zM274 39q0 66 256 426q182 256 295 424q162 241 229.5 364.5t84.5 200.5q18 3 36 4.5t37 1.5q42 0 66.5 -18.5t24.5 -50.5q0 -58 -253 -414q-83 -117 -130 -184q-249 -355 -361 -544.5t-125 -274.5q-17 -4 -32 -5.5t-27 -1.5 q-48 0 -74.5 19t-26.5 53zM995 76q0 69 158 171q41 27 64 42q138 91 205 170.5t67 150.5q0 62 -47.5 100t-126.5 38q-67 0 -114 -30.5t-83 -96.5q-39 21 -58.5 46t-19.5 52q0 68 79.5 115t199.5 47q146 0 237 -73t91 -187q0 -113 -106.5 -231.5t-334.5 -256.5h72 q146 0 220 11t120 36q14 -32 20.5 -54.5t6.5 -41.5q0 -46 -32 -65t-114 -19q-65 0 -167.5 3t-139.5 3q-44 0 -86 -2.5t-86 -7.5q-14 23 -19.5 41.5t-5.5 38.5z" />
<glyph unicode="&#xbe;" horiz-adv-x="1796" d="M43 623q0 19 12.5 41.5t38.5 50.5q29 -25 67 -37t85 -12q106 0 172.5 43t66.5 108q0 50 -40 82t-115 41q-31 4 -83 6q-110 6 -110 51q0 43 100 60q64 11 101 22q63 19 98 52t35 73q0 49 -43.5 78t-118.5 29q-49 0 -93.5 -17t-74.5 -47q-31 19 -46 37.5t-15 38.5 q0 48 66 80.5t169 32.5q138 0 223 -60t85 -155q0 -68 -48 -120t-143 -85q98 -15 151.5 -67t53.5 -132q0 -115 -123.5 -194.5t-306.5 -79.5q-84 0 -124 19.5t-40 60.5zM383 39q0 66 256 426q182 256 295 424q161 241 228.5 364.5t85.5 200.5q17 3 35.5 4.5t37.5 1.5 q42 0 66 -18.5t24 -50.5q0 -58 -252 -414q-83 -117 -131 -184q-249 -355 -361 -544.5t-124 -274.5q-17 -4 -32.5 -5.5t-27.5 -1.5q-47 0 -73.5 19t-26.5 53zM1008 340q0 56 155 217q55 57 86 90q38 41 101 111q152 170 211 170q29 0 42 -19t13 -61q0 -5 -3 -37 q-16 -207 -15 -432q39 2 71.5 8.5t63.5 20.5q13 -25 19.5 -45t6.5 -33q0 -40 -26.5 -59t-81.5 -19q-14 0 -27 0.5t-27 1.5q0 -64 2 -132v-20q0 -53 -15.5 -77.5t-49.5 -24.5q-21 0 -49 8.5t-72 28.5q22 45 32.5 98.5t10.5 120.5q-109 0 -227 2h-33q-52 0 -81.5 -3t-57.5 -9 q-27 27 -38 48.5t-11 45.5zM1145 375q41 -3 76.5 -4.5t66.5 -1.5q45 0 89 1t93 3l1 12q4 172 4 254v94q-87 -95 -204.5 -219t-125.5 -139z" />
<glyph unicode="&#xbf;" horiz-adv-x="811" d="M121 317q0 135 148 327q16 21 24 32q76 101 101.5 156t25.5 106q0 10 -1.5 27t-4.5 40q5 1 15 2q19 3 24 3q58 0 91.5 -32t33.5 -87q0 -81 -126 -249q-35 -46 -53 -71q-69 -97 -90.5 -149.5t-21.5 -104.5q0 -79 54.5 -129.5t141.5 -50.5q42 0 84.5 15t89.5 47 q14 -34 20.5 -57.5t6.5 -43.5q0 -57 -51.5 -93t-136.5 -36q-153 0 -264 104t-111 244zM332 1280q0 54 42.5 91.5t104.5 37.5q57 0 93 -34.5t36 -88.5q0 -60 -40.5 -98.5t-104.5 -38.5q-60 0 -95.5 35.5t-35.5 95.5z" />
<glyph unicode="&#xc0;" horiz-adv-x="1364" d="M53 102q0 51 194 441t339 725q-16 23 -34.5 44.5t-39.5 43.5q37 46 67.5 67t61.5 21q43 0 83.5 -55.5t94.5 -188.5q47 -115 129 -321q278 -699 387 -803q-38 -42 -70 -60t-67 -18q-101 0 -229 344q-29 76 -45 119h-541q-80 -174 -111.5 -273t-31.5 -170l-1 -16 q-23 -3 -33.5 -3.5t-19.5 -0.5q-65 0 -99 26.5t-34 77.5zM449 598h421q-51 137 -102 263.5t-102 244.5l-48 -112q-115 -270 -169 -396zM420 1807q0 38 24 62t64 24q53 0 156 -116q37 -41 59 -64q20 -23 63 -58t43 -55q0 -17 -10.5 -25t-32.5 -8q-32 0 -101.5 27t-152.5 74 q-56 30 -84 65t-28 74z" />
<glyph unicode="&#xc1;" horiz-adv-x="1364" d="M53 102q0 51 194 441t339 725q-16 23 -34.5 44.5t-39.5 43.5q37 46 67.5 67t61.5 21q43 0 83.5 -55.5t94.5 -188.5q47 -115 129 -321q278 -699 387 -803q-38 -42 -70 -60t-67 -18q-101 0 -229 344q-29 76 -45 119h-541q-80 -174 -111.5 -273t-31.5 -170l-1 -16 q-23 -3 -33.5 -3.5t-19.5 -0.5q-65 0 -99 26.5t-34 77.5zM449 598h421q-51 137 -102 263.5t-102 244.5l-48 -112q-115 -270 -169 -396zM528 1600q0 20 43 55t64 58q21 22 57 63q105 117 158 117q41 0 65.5 -23.5t24.5 -62.5q0 -37 -29 -72t-86 -67q-80 -47 -149.5 -74 t-102.5 -27q-23 0 -34 8t-11 25z" />
<glyph unicode="&#xc2;" horiz-adv-x="1364" d="M53 102q0 51 194 441t339 725q-16 23 -34.5 44.5t-39.5 43.5q37 46 67.5 67t61.5 21q43 0 83.5 -55.5t94.5 -188.5q47 -115 129 -321q278 -699 387 -803q-38 -42 -70 -60t-67 -18q-101 0 -229 344q-29 76 -45 119h-541q-80 -174 -111.5 -273t-31.5 -170l-1 -16 q-23 -3 -33.5 -3.5t-19.5 -0.5q-65 0 -99 26.5t-34 77.5zM449 598h421q-51 137 -102 263.5t-102 244.5l-48 -112q-115 -270 -169 -396zM387 1606q0 32 73 108q15 16 24 26l8 9q121 134 186 134q64 0 216 -149l5 -5q51 -51 67.5 -76.5t16.5 -46.5q0 -16 -11 -27.5t-26 -11.5 q-25 0 -117 62q-8 5 -12 8l-24 16q-95 64 -115 64q-23 0 -101 -53q-23 -16 -36 -25q-14 -9 -37 -25q-65 -45 -84 -45q-15 0 -24 10.5t-9 26.5z" />
<glyph unicode="&#xc3;" horiz-adv-x="1364" d="M53 102q0 51 194 441t339 725q-16 23 -34.5 44.5t-39.5 43.5q37 46 67.5 67t61.5 21q43 0 83.5 -55.5t94.5 -188.5q47 -115 129 -321q278 -699 387 -803q-38 -42 -70 -60t-67 -18q-101 0 -229 344q-29 76 -45 119h-541q-80 -174 -111.5 -273t-31.5 -170l-1 -16 q-23 -3 -33.5 -3.5t-19.5 -0.5q-65 0 -99 26.5t-34 77.5zM449 598h421q-51 137 -102 263.5t-102 244.5l-48 -112q-115 -270 -169 -396zM365 1616q0 71 67 132t150 61q49 0 135 -27.5t121 -27.5q49 0 94.5 35.5t50.5 35.5q13 0 20 -9t7 -26q0 -78 -58 -135t-139 -57 q-49 0 -135.5 28.5t-124.5 28.5q-52 0 -103 -40t-57 -40q-14 0 -21 10t-7 31z" />
<glyph unicode="&#xc4;" horiz-adv-x="1364" d="M53 102q0 51 194 441t339 725q-16 23 -34.5 44.5t-39.5 43.5q37 46 67.5 67t61.5 21q43 0 83.5 -55.5t94.5 -188.5q47 -115 129 -321q278 -699 387 -803q-38 -42 -70 -60t-67 -18q-101 0 -229 344q-29 76 -45 119h-541q-80 -174 -111.5 -273t-31.5 -170l-1 -16 q-23 -3 -33.5 -3.5t-19.5 -0.5q-65 0 -99 26.5t-34 77.5zM449 598h421q-51 137 -102 263.5t-102 244.5l-48 -112q-115 -270 -169 -396zM395 1721q0 49 35 81.5t88 32.5q50 0 81.5 -29.5t31.5 -76.5q0 -49 -35.5 -81t-89.5 -32q-50 0 -80.5 29t-30.5 76zM741 1721 q0 49 34 81.5t83 32.5q52 0 84.5 -29.5t32.5 -76.5q0 -49 -35 -81t-90 -32q-49 0 -79 28.5t-30 76.5z" />
<glyph unicode="&#xc5;" horiz-adv-x="1364" d="M53 102q0 53 194.5 444t337.5 721q-12 18 -29 36t-36 34q35 46 65.5 67t61.5 21q43 0 81 -51t101 -207q50 -120 136 -333q266 -660 370 -758q-38 -42 -70 -60t-67 -18q-101 0 -229 344q-29 76 -45 119h-541q-79 -172 -111 -273t-32 -174l-1 -12q-23 -3 -33.5 -3.5 t-19.5 -0.5q-65 0 -99 26.5t-34 77.5zM412 1737q0 99 69 167t170 68t169.5 -67.5t68.5 -167.5q0 -102 -68.5 -171t-169.5 -69t-170 69t-69 171zM449 598h421q-51 137 -102 263.5t-102 244.5l-48 -112q-115 -270 -169 -396zM518 1735q0 -55 38.5 -91t96.5 -36q57 0 94 36 t37 91t-37 91t-94 36q-58 0 -96.5 -36.5t-38.5 -90.5z" />
<glyph unicode="&#xc6;" horiz-adv-x="1720" d="M-29 96q0 30 28.5 82.5t84.5 126.5l60 80q519 691 683 971l-36 73q30 -1 63.5 -1.5t95.5 -0.5q233 0 486 17q60 4 73 4q81 0 111.5 -18t30.5 -64q0 -25 -11.5 -57.5t-33.5 -73.5q-46 25 -125.5 36t-225.5 11q-13 0 -69 -1.5t-94 -2.5l-7 -442q2 -1 7 -1q83 -4 122 -4 q128 0 214.5 7t123.5 20q14 -28 20.5 -50t6.5 -38q0 -49 -30.5 -69.5t-104.5 -20.5q-24 0 -107 2t-141 2q-46 0 -70 -1t-44 -3q-3 -219 -5 -326.5t-6 -191.5q79 -3 118.5 -3.5t74.5 -0.5q101 0 177 13t132 40q19 -33 29 -63.5t10 -57.5q0 -53 -34.5 -73.5t-131.5 -20.5 q-35 0 -130.5 3t-156.5 3q-65 0 -132 -3t-69 -3q-34 0 -47.5 16t-13.5 56q0 14 3 75q12 215 13 402h-460q-145 -197 -215.5 -326t-82.5 -217q-9 -1 -20 -1.5t-33 -0.5q-64 0 -97.5 24.5t-33.5 71.5zM545 682h370q0 45 1.5 129.5t1.5 124.5q-1 65 -1.5 137.5t-3.5 190.5h-10 q-85 -147 -174.5 -292.5t-183.5 -289.5z" />
<glyph unicode="&#xc7;" horiz-adv-x="1346" d="M68 709q0 175 77.5 321.5t231.5 261.5q114 85 269.5 131.5t326.5 46.5q132 0 185.5 -22t53.5 -76q0 -23 -12.5 -54.5t-38.5 -74.5q-55 25 -118 37t-136 12q-285 0 -460 -155.5t-175 -407.5q0 -249 165 -409t423 -160q80 0 152.5 19t144.5 59q30 -39 43.5 -68.5 t13.5 -54.5q0 -62 -88 -96.5t-245 -34.5q-169 0 -311.5 46t-247.5 134q-127 106 -190.5 242.5t-63.5 302.5zM659 -383q0 7 2.5 18t8.5 33q14 -4 25.5 -6t21.5 -2q52 0 85.5 25t33.5 61q0 25 -13 37t-61 20q-54 10 -69 24t-15 42q0 29 27.5 70t93.5 106h92q-37 -40 -56.5 -71 t-19.5 -50q0 -26 46 -38l9 -3q58 -15 79.5 -39.5t21.5 -70.5q0 -89 -70 -150t-172 -61q-35 0 -52.5 13.5t-17.5 41.5z" />
<glyph unicode="&#xc8;" horiz-adv-x="1051" d="M168 1430h127q234 0 481 15q53 3 64 3q81 0 111 -18t30 -64q0 -26 -10.5 -58.5t-32.5 -72.5q-53 24 -128.5 35.5t-191.5 11.5q-48 0 -178 -3q-32 -1 -49 -1l-8 -442q27 -2 58 -2h98q133 0 219.5 6t126.5 18q12 -28 18 -49.5t6 -38.5q0 -48 -31 -69t-102 -21 q-23 0 -113.5 2t-156.5 2q-50 0 -77 -0.5t-50 -1.5q0 -113 -2.5 -240.5t-7.5 -279.5q10 0 30 -1q131 -3 187 -3q107 0 182.5 12.5t134.5 40.5q22 -38 31.5 -66.5t9.5 -52.5q0 -53 -35 -74.5t-133 -21.5q-48 0 -144 3t-143 3q-106 0 -212 -5q-22 -1 -27 -1q-35 0 -49.5 16 t-14.5 56q0 21 5 107q16 310 16 581q0 269 -9.5 431t-29.5 243zM303 1807q0 38 24 62t64 24q53 0 156 -116q37 -41 59 -64q20 -23 63 -58t43 -55q0 -17 -10.5 -25t-32.5 -8q-32 0 -101.5 27t-152.5 74q-56 30 -84 65t-28 74z" />
<glyph unicode="&#xc9;" horiz-adv-x="1051" d="M168 1430h127q234 0 481 15q53 3 64 3q81 0 111 -18t30 -64q0 -26 -10.5 -58.5t-32.5 -72.5q-53 24 -128.5 35.5t-191.5 11.5q-48 0 -178 -3q-32 -1 -49 -1l-8 -442q27 -2 58 -2h98q133 0 219.5 6t126.5 18q12 -28 18 -49.5t6 -38.5q0 -48 -31 -69t-102 -21 q-23 0 -113.5 2t-156.5 2q-50 0 -77 -0.5t-50 -1.5q0 -113 -2.5 -240.5t-7.5 -279.5q10 0 30 -1q131 -3 187 -3q107 0 182.5 12.5t134.5 40.5q22 -38 31.5 -66.5t9.5 -52.5q0 -53 -35 -74.5t-133 -21.5q-48 0 -144 3t-143 3q-106 0 -212 -5q-22 -1 -27 -1q-35 0 -49.5 16 t-14.5 56q0 21 5 107q16 310 16 581q0 269 -9.5 431t-29.5 243zM411 1600q0 20 43 55t64 58q21 22 57 63q105 117 158 117q41 0 65.5 -23.5t24.5 -62.5q0 -37 -29 -72t-86 -67q-80 -47 -149.5 -74t-102.5 -27q-23 0 -34 8t-11 25z" />
<glyph unicode="&#xca;" horiz-adv-x="1051" d="M168 1430h127q234 0 481 15q53 3 64 3q81 0 111 -18t30 -64q0 -26 -10.5 -58.5t-32.5 -72.5q-53 24 -128.5 35.5t-191.5 11.5q-48 0 -178 -3q-32 -1 -49 -1l-8 -442q27 -2 58 -2h98q133 0 219.5 6t126.5 18q12 -28 18 -49.5t6 -38.5q0 -48 -31 -69t-102 -21 q-23 0 -113.5 2t-156.5 2q-50 0 -77 -0.5t-50 -1.5q0 -113 -2.5 -240.5t-7.5 -279.5q10 0 30 -1q131 -3 187 -3q107 0 182.5 12.5t134.5 40.5q22 -38 31.5 -66.5t9.5 -52.5q0 -53 -35 -74.5t-133 -21.5q-48 0 -144 3t-143 3q-106 0 -212 -5q-22 -1 -27 -1q-35 0 -49.5 16 t-14.5 56q0 21 5 107q16 310 16 581q0 269 -9.5 431t-29.5 243zM270 1606q0 32 73 108q15 16 24 26l8 9q121 134 186 134q64 0 216 -149l5 -5q51 -51 67.5 -76.5t16.5 -46.5q0 -16 -11 -27.5t-26 -11.5q-25 0 -117 62q-8 5 -12 8l-24 16q-95 64 -115 64q-23 0 -101 -53 q-23 -16 -36 -25q-14 -9 -37 -25q-65 -45 -84 -45q-15 0 -24 10.5t-9 26.5z" />
<glyph unicode="&#xcb;" horiz-adv-x="1051" d="M168 1430h127q234 0 481 15q53 3 64 3q81 0 111 -18t30 -64q0 -26 -10.5 -58.5t-32.5 -72.5q-53 24 -128.5 35.5t-191.5 11.5q-48 0 -178 -3q-32 -1 -49 -1l-8 -442q27 -2 58 -2h98q133 0 219.5 6t126.5 18q12 -28 18 -49.5t6 -38.5q0 -48 -31 -69t-102 -21 q-23 0 -113.5 2t-156.5 2q-50 0 -77 -0.5t-50 -1.5q0 -113 -2.5 -240.5t-7.5 -279.5q10 0 30 -1q131 -3 187 -3q107 0 182.5 12.5t134.5 40.5q22 -38 31.5 -66.5t9.5 -52.5q0 -53 -35 -74.5t-133 -21.5q-48 0 -144 3t-143 3q-106 0 -212 -5q-22 -1 -27 -1q-35 0 -49.5 16 t-14.5 56q0 21 5 107q16 310 16 581q0 269 -9.5 431t-29.5 243zM278 1721q0 49 35 81.5t88 32.5q50 0 81.5 -29.5t31.5 -76.5q0 -49 -35.5 -81t-89.5 -32q-50 0 -80.5 29t-30.5 76zM624 1721q0 49 34 81.5t83 32.5q52 0 84.5 -29.5t32.5 -76.5q0 -49 -35 -81t-90 -32 q-49 0 -79 28.5t-30 76.5z" />
<glyph unicode="&#xcc;" horiz-adv-x="602" d="M152 1391q51 27 92.5 40t77.5 13q52 0 73 -30t21 -107q0 -12 -10.5 -248.5t-10.5 -462.5q0 -228 15 -355t49 -190q-47 -25 -90 -38t-82 -13q-53 0 -72.5 29.5t-19.5 113.5q0 43 9 271.5t9 416.5q0 241 -14.5 371.5t-46.5 188.5zM39 1807q0 38 24 62t64 24q53 0 156 -116 q37 -41 59 -64q20 -23 63 -58t43 -55q0 -17 -10.5 -25t-32.5 -8q-32 0 -101.5 27t-152.5 74q-56 30 -84 65t-28 74z" />
<glyph unicode="&#xcd;" horiz-adv-x="602" d="M152 1391q51 27 92.5 40t77.5 13q52 0 73 -30t21 -107q0 -12 -10.5 -248.5t-10.5 -462.5q0 -228 15 -355t49 -190q-47 -25 -90 -38t-82 -13q-53 0 -72.5 29.5t-19.5 113.5q0 43 9 271.5t9 416.5q0 241 -14.5 371.5t-46.5 188.5zM147 1600q0 20 43 55t64 58q21 22 57 63 q105 117 158 117q41 0 65.5 -23.5t24.5 -62.5q0 -37 -29 -72t-86 -67q-80 -47 -149.5 -74t-102.5 -27q-23 0 -34 8t-11 25z" />
<glyph unicode="&#xce;" horiz-adv-x="602" d="M152 1391q51 27 92.5 40t77.5 13q52 0 73 -30t21 -107q0 -12 -10.5 -248.5t-10.5 -462.5q0 -228 15 -355t49 -190q-47 -25 -90 -38t-82 -13q-53 0 -72.5 29.5t-19.5 113.5q0 43 9 271.5t9 416.5q0 241 -14.5 371.5t-46.5 188.5zM6 1606q0 32 73 108q15 16 24 26l8 9 q121 134 186 134q64 0 216 -149l5 -5q51 -51 67.5 -76.5t16.5 -46.5q0 -16 -11 -27.5t-26 -11.5q-25 0 -117 62q-8 5 -12 8l-24 16q-95 64 -115 64q-23 0 -101 -53q-23 -16 -36 -25q-14 -9 -37 -25q-65 -45 -84 -45q-15 0 -24 10.5t-9 26.5z" />
<glyph unicode="&#xcf;" horiz-adv-x="602" d="M152 1391q51 27 92.5 40t77.5 13q52 0 73 -30t21 -107q0 -12 -10.5 -248.5t-10.5 -462.5q0 -228 15 -355t49 -190q-47 -25 -90 -38t-82 -13q-53 0 -72.5 29.5t-19.5 113.5q0 43 9 271.5t9 416.5q0 241 -14.5 371.5t-46.5 188.5zM14 1721q0 49 35 81.5t88 32.5 q50 0 81.5 -29.5t31.5 -76.5q0 -49 -35.5 -81t-89.5 -32q-50 0 -80.5 29t-30.5 76zM360 1721q0 49 34 81.5t83 32.5q52 0 84.5 -29.5t32.5 -76.5q0 -49 -35 -81t-90 -32q-49 0 -79 28.5t-30 76.5z" />
<glyph unicode="&#xd0;" horiz-adv-x="1505" d="M16 752q0 14 5.5 32t17.5 43q45 -4 89 -6t87 -1q-2 245 -16.5 397.5t-42.5 219.5q138 3 275 8t140 5q391 0 622.5 -186t231.5 -496q0 -166 -68.5 -313.5t-197.5 -257.5q-119 -102 -278.5 -153.5t-356.5 -51.5q-201 0 -265 32t-64 121q0 26 8.5 207t11.5 340q-8 0 -25 -1 q-58 -3 -77 -3q-53 0 -75 14.5t-22 49.5zM393 551q0 -74 2.5 -162.5t8.5 -202.5q47 -13 98 -19.5t108 -6.5q268 0 437.5 158t169.5 407q0 251 -170 408t-443 157q-54 0 -103.5 -3.5t-94.5 -10.5q-6 -159 -10 -392q0 -40 -1 -58q52 2 151.5 9t127.5 7q50 0 72 -15.5t22 -50.5 q0 -17 -6 -36.5t-20 -46.5q-42 6 -96 10t-116 4q-8 0 -54 -2t-81 -3q-1 -26 -1.5 -56.5t-0.5 -94.5z" />
<glyph unicode="&#xd1;" horiz-adv-x="1642" d="M102 1335q44 52 78 74.5t68 22.5q32 0 63 -20.5t76 -72.5q8 -9 37 -44q383 -456 860 -987q3 149 4.5 263t1.5 195q0 266 -21 405.5t-69 223.5q45 24 81.5 35.5t68.5 11.5q57 0 78.5 -33.5t21.5 -144.5q0 -66 -11.5 -324.5t-11.5 -452.5q0 -126 6 -236t17 -206l-104 -57 q-183 180 -506 556.5t-483 544.5q1 -376 14 -794q4 -111 4 -135q0 -99 -21 -129.5t-78 -30.5q-37 0 -77 13t-80 38q54 92 76 264.5t22 608.5q0 205 -25.5 291t-89.5 120zM492 1616q0 71 67 132t150 61q49 0 135 -27.5t121 -27.5q49 0 94.5 35.5t50.5 35.5q13 0 20 -9t7 -26 q0 -78 -58 -135t-139 -57q-49 0 -135.5 28.5t-124.5 28.5q-52 0 -103 -40t-57 -40q-14 0 -21 10t-7 31z" />
<glyph unicode="&#xd2;" horiz-adv-x="1716" d="M80 707q0 163 58.5 303t172.5 247q111 105 258 159t320 54q339 0 543 -192t204 -510q0 -157 -55.5 -296.5t-161.5 -248.5q-121 -126 -272 -189t-332 -63q-152 0 -284.5 50.5t-233.5 146.5q-108 102 -162.5 237t-54.5 302zM289 721q0 -259 153 -421.5t398 -162.5 q260 0 423.5 172t163.5 445q0 253 -152 405t-407 152q-263 0 -421 -161t-158 -429zM594 1807q0 38 24 62t64 24q53 0 156 -116q37 -41 59 -64q20 -23 63 -58t43 -55q0 -17 -10.5 -25t-32.5 -8q-32 0 -101.5 27t-152.5 74q-56 30 -84 65t-28 74z" />
<glyph unicode="&#xd3;" horiz-adv-x="1716" d="M80 707q0 163 58.5 303t172.5 247q111 105 258 159t320 54q339 0 543 -192t204 -510q0 -157 -55.5 -296.5t-161.5 -248.5q-121 -126 -272 -189t-332 -63q-152 0 -284.5 50.5t-233.5 146.5q-108 102 -162.5 237t-54.5 302zM289 721q0 -259 153 -421.5t398 -162.5 q260 0 423.5 172t163.5 445q0 253 -152 405t-407 152q-263 0 -421 -161t-158 -429zM702 1600q0 20 43 55t64 58q21 22 57 63q105 117 158 117q41 0 65.5 -23.5t24.5 -62.5q0 -37 -29 -72t-86 -67q-80 -47 -149.5 -74t-102.5 -27q-23 0 -34 8t-11 25z" />
<glyph unicode="&#xd4;" horiz-adv-x="1716" d="M80 707q0 163 58.5 303t172.5 247q111 105 258 159t320 54q339 0 543 -192t204 -510q0 -157 -55.5 -296.5t-161.5 -248.5q-121 -126 -272 -189t-332 -63q-152 0 -284.5 50.5t-233.5 146.5q-108 102 -162.5 237t-54.5 302zM289 721q0 -259 153 -421.5t398 -162.5 q260 0 423.5 172t163.5 445q0 253 -152 405t-407 152q-263 0 -421 -161t-158 -429zM561 1606q0 32 73 108q15 16 24 26l8 9q121 134 186 134q64 0 216 -149l5 -5q51 -51 67.5 -76.5t16.5 -46.5q0 -16 -11 -27.5t-26 -11.5q-25 0 -117 62q-8 5 -12 8l-24 16q-95 64 -115 64 q-23 0 -101 -53q-23 -16 -36 -25q-14 -9 -37 -25q-65 -45 -84 -45q-15 0 -24 10.5t-9 26.5z" />
<glyph unicode="&#xd5;" horiz-adv-x="1716" d="M80 707q0 163 58.5 303t172.5 247q111 105 258 159t320 54q339 0 543 -192t204 -510q0 -157 -55.5 -296.5t-161.5 -248.5q-121 -126 -272 -189t-332 -63q-152 0 -284.5 50.5t-233.5 146.5q-108 102 -162.5 237t-54.5 302zM289 721q0 -259 153 -421.5t398 -162.5 q260 0 423.5 172t163.5 445q0 253 -152 405t-407 152q-263 0 -421 -161t-158 -429zM539 1616q0 71 67 132t150 61q49 0 135 -27.5t121 -27.5q49 0 94.5 35.5t50.5 35.5q13 0 20 -9t7 -26q0 -78 -58 -135t-139 -57q-49 0 -135.5 28.5t-124.5 28.5q-52 0 -103 -40t-57 -40 q-14 0 -21 10t-7 31z" />
<glyph unicode="&#xd6;" horiz-adv-x="1716" d="M80 707q0 163 58.5 303t172.5 247q111 105 258 159t320 54q339 0 543 -192t204 -510q0 -157 -55.5 -296.5t-161.5 -248.5q-121 -126 -272 -189t-332 -63q-152 0 -284.5 50.5t-233.5 146.5q-108 102 -162.5 237t-54.5 302zM289 721q0 -259 153 -421.5t398 -162.5 q260 0 423.5 172t163.5 445q0 253 -152 405t-407 152q-263 0 -421 -161t-158 -429zM569 1721q0 49 35 81.5t88 32.5q50 0 81.5 -29.5t31.5 -76.5q0 -49 -35.5 -81t-89.5 -32q-50 0 -80.5 29t-30.5 76zM915 1721q0 49 34 81.5t83 32.5q52 0 84.5 -29.5t32.5 -76.5 q0 -49 -35 -81t-90 -32q-49 0 -79 28.5t-30 76.5z" />
<glyph unicode="&#xd7;" horiz-adv-x="1378" d="M162 152q0 15 9 33t26 34l391 391l-391 394q-17 16 -26 33.5t-9 33.5q0 31 20 51.5t49 20.5q19 0 37 -8t33 -23l393 -395l391 391q17 17 35 26t35 9q29 0 50.5 -22.5t21.5 -53.5q0 -15 -9.5 -32.5t-27.5 -35.5l-389 -389l391 -391q17 -16 26 -34t9 -33q0 -31 -20 -51.5 t-50 -20.5q-19 0 -37 8t-33 23l-393 393l-393 -393q-14 -15 -33 -23t-37 -8q-29 0 -49 20.5t-20 51.5z" />
<glyph unicode="&#xd8;" horiz-adv-x="1716" d="M80 707q0 334 228 548.5t587 214.5q112 0 211 -23.5t188 -72.5q56 79 83.5 129t37.5 88q72 -1 110 -20.5t38 -54.5q0 -28 -28.5 -71t-123.5 -151q116 -108 170.5 -235.5t54.5 -290.5q0 -138 -41.5 -261t-124.5 -226q-118 -151 -285.5 -230.5t-367.5 -79.5 q-111 0 -213.5 28t-195.5 83q-61 -81 -93.5 -137t-44.5 -99q-70 2 -106.5 21.5t-36.5 54.5q0 50 161 236l9 10q-112 118 -164.5 248.5t-52.5 290.5zM274 721q0 -127 34 -223.5t106 -175.5q360 411 558.5 645.5t217.5 269.5q-65 40 -147 61t-175 21q-268 0 -431 -164 t-163 -434zM514 225q67 -47 150.5 -71.5t177.5 -24.5q261 0 430.5 175.5t169.5 447.5q0 126 -33.5 220.5t-105.5 174.5q-236 -264 -439 -501.5t-350 -420.5z" />
<glyph unicode="&#xd9;" horiz-adv-x="1540" d="M139 1393q44 25 86.5 38t83.5 13q53 0 72.5 -30.5t19.5 -123.5q0 -41 -11 -244t-11 -364q0 -299 85 -423t286 -124q234 0 339 160t105 518q0 224 -25.5 366t-76.5 205q44 30 80.5 45t66.5 15q78 0 106.5 -81.5t28.5 -373.5q0 -549 -150.5 -784.5t-496.5 -235.5 q-285 0 -411 147t-126 484q0 75 5.5 213t5.5 201q0 137 -15 228.5t-47 150.5zM518 1807q0 38 24 62t64 24q53 0 156 -116q37 -41 59 -64q20 -23 63 -58t43 -55q0 -17 -10.5 -25t-32.5 -8q-32 0 -101.5 27t-152.5 74q-56 30 -84 65t-28 74z" />
<glyph unicode="&#xda;" horiz-adv-x="1540" d="M139 1393q44 25 86.5 38t83.5 13q53 0 72.5 -30.5t19.5 -123.5q0 -41 -11 -244t-11 -364q0 -299 85 -423t286 -124q234 0 339 160t105 518q0 224 -25.5 366t-76.5 205q44 30 80.5 45t66.5 15q78 0 106.5 -81.5t28.5 -373.5q0 -549 -150.5 -784.5t-496.5 -235.5 q-285 0 -411 147t-126 484q0 75 5.5 213t5.5 201q0 137 -15 228.5t-47 150.5zM626 1600q0 20 43 55t64 58q21 22 57 63q105 117 158 117q41 0 65.5 -23.5t24.5 -62.5q0 -37 -29 -72t-86 -67q-80 -47 -149.5 -74t-102.5 -27q-23 0 -34 8t-11 25z" />
<glyph unicode="&#xdb;" horiz-adv-x="1540" d="M139 1393q44 25 86.5 38t83.5 13q53 0 72.5 -30.5t19.5 -123.5q0 -41 -11 -244t-11 -364q0 -299 85 -423t286 -124q234 0 339 160t105 518q0 224 -25.5 366t-76.5 205q44 30 80.5 45t66.5 15q78 0 106.5 -81.5t28.5 -373.5q0 -549 -150.5 -784.5t-496.5 -235.5 q-285 0 -411 147t-126 484q0 75 5.5 213t5.5 201q0 137 -15 228.5t-47 150.5zM485 1606q0 32 73 108q15 16 24 26l8 9q121 134 186 134q64 0 216 -149l5 -5q51 -51 67.5 -76.5t16.5 -46.5q0 -16 -11 -27.5t-26 -11.5q-25 0 -117 62q-8 5 -12 8l-24 16q-95 64 -115 64 q-23 0 -101 -53q-23 -16 -36 -25q-14 -9 -37 -25q-65 -45 -84 -45q-15 0 -24 10.5t-9 26.5z" />
<glyph unicode="&#xdc;" horiz-adv-x="1540" d="M139 1393q44 25 86.5 38t83.5 13q53 0 72.5 -30.5t19.5 -123.5q0 -41 -11 -244t-11 -364q0 -299 85 -423t286 -124q234 0 339 160t105 518q0 224 -25.5 366t-76.5 205q44 30 80.5 45t66.5 15q78 0 106.5 -81.5t28.5 -373.5q0 -549 -150.5 -784.5t-496.5 -235.5 q-285 0 -411 147t-126 484q0 75 5.5 213t5.5 201q0 137 -15 228.5t-47 150.5zM493 1721q0 49 35 81.5t88 32.5q50 0 81.5 -29.5t31.5 -76.5q0 -49 -35.5 -81t-89.5 -32q-50 0 -80.5 29t-30.5 76zM839 1721q0 49 34 81.5t83 32.5q52 0 84.5 -29.5t32.5 -76.5q0 -49 -35 -81 t-90 -32q-49 0 -79 28.5t-30 76.5z" />
<glyph unicode="&#xdd;" horiz-adv-x="1219" d="M-2 1288q24 83 60 125.5t83 42.5q26 0 47 -14t45 -49q10 -14 55 -93q162 -288 326 -542q203 293 284 437.5t81 207.5q0 9 -1.5 16.5t-4.5 13.5q34 9 64.5 13t56.5 4q39 0 60.5 -18.5t21.5 -53.5q0 -52 -243 -401q-149 -214 -241 -350q0 -24 -1 -70.5t-1 -67.5 q0 -174 14 -278.5t44 -161.5q-48 -25 -89 -37t-79 -12q-51 0 -71 27.5t-20 97.5q0 14 7.5 171.5t11.5 305.5q-192 337 -320 509t-190 177zM456 1600q0 20 43 55t64 58q21 22 57 63q105 117 158 117q41 0 65.5 -23.5t24.5 -62.5q0 -37 -29 -72t-86 -67q-80 -47 -149.5 -74 t-102.5 -27q-23 0 -34 8t-11 25z" />
<glyph unicode="&#xde;" horiz-adv-x="1118" d="M139 1391q50 27 90 40t74 13q52 0 71 -29t19 -117q0 -26 -3 -82q-1 -8 -1 -11q41 8 83 13t83 5q235 0 367.5 -110t132.5 -304q0 -221 -153.5 -361.5t-397.5 -140.5q-36 0 -66.5 2t-58.5 6q2 -97 15.5 -160.5t41.5 -101.5q-54 -27 -97 -41t-71 -14q-47 0 -66.5 31 t-19.5 114q0 43 9.5 271.5t9.5 416.5q0 241 -14.5 371.5t-47.5 188.5zM371 598q0 -24 1 -69t1 -66q29 -4 60.5 -6t68.5 -2q165 0 258.5 87.5t93.5 241.5q0 141 -82 214t-240 73q-34 0 -70 -4.5t-77 -13.5q-8 -155 -11 -261.5t-3 -193.5z" />
<glyph unicode="&#xdf;" horiz-adv-x="1014" d="M96 49q31 60 45.5 173t14.5 296q0 86 -3 229t-3 201q0 266 103 394t318 128q156 0 250 -76.5t94 -203.5q0 -125 -169 -348q-17 -22 -25 -33q-18 -24 -28.5 -48.5t-10.5 -41.5q0 -55 101 -162q28 -29 45 -48q58 -61 84 -112t26 -102q0 -124 -111.5 -214.5t-269.5 -90.5 q-53 0 -80.5 22t-27.5 64q0 22 8 46.5t26 55.5q37 -19 69 -28t64 -9q72 0 116 35t44 90q0 71 -126 213q-10 11 -15 17q-57 64 -84 113.5t-27 88.5q0 64 129 226l6 8q54 68 77.5 122t23.5 107q0 80 -56 128t-149 48q-133 0 -188.5 -84.5t-55.5 -306.5q0 -337 12 -702 q3 -87 3 -107q0 -79 -18 -107t-64 -28q-31 0 -66.5 11.5t-81.5 35.5z" />
<glyph unicode="&#xe0;" horiz-adv-x="1020" d="M84 293q0 155 126.5 248.5t340.5 93.5q35 0 74.5 -2.5t84.5 -7.5q2 9 2.5 18.5t0.5 22.5q0 104 -58.5 158.5t-169.5 54.5q-92 0 -151.5 -30.5t-96.5 -94.5q-36 9 -54.5 31t-18.5 57q0 73 92.5 120.5t241.5 47.5q183 0 274.5 -88.5t91.5 -264.5q0 -33 -3 -115t-3 -132 q0 -138 16.5 -222t53.5 -135q-39 -25 -71 -38t-56 -13q-43 0 -62.5 26.5t-22.5 85.5q-75 -64 -148.5 -95t-149.5 -31q-150 0 -242 84t-92 221zM250 307q0 -82 55 -129t152 -47q73 0 136.5 27.5t116.5 82.5q-2 50 -2.5 81.5t-0.5 60.5q0 18 1 56.5t0 58.5q-46 7 -82.5 10.5 t-62.5 3.5q-155 0 -234 -51.5t-79 -153.5zM248 1356q0 38 24 62t64 24q53 0 156 -116q37 -41 59 -64q20 -23 63 -58t43 -55q0 -17 -10.5 -25t-32.5 -8q-32 0 -101.5 27t-152.5 74q-56 30 -84 65t-28 74z" />
<glyph unicode="&#xe1;" horiz-adv-x="1020" d="M84 293q0 155 126.5 248.5t340.5 93.5q35 0 74.5 -2.5t84.5 -7.5q2 9 2.5 18.5t0.5 22.5q0 104 -58.5 158.5t-169.5 54.5q-92 0 -151.5 -30.5t-96.5 -94.5q-36 9 -54.5 31t-18.5 57q0 73 92.5 120.5t241.5 47.5q183 0 274.5 -88.5t91.5 -264.5q0 -33 -3 -115t-3 -132 q0 -138 16.5 -222t53.5 -135q-39 -25 -71 -38t-56 -13q-43 0 -62.5 26.5t-22.5 85.5q-75 -64 -148.5 -95t-149.5 -31q-150 0 -242 84t-92 221zM250 307q0 -82 55 -129t152 -47q73 0 136.5 27.5t116.5 82.5q-2 50 -2.5 81.5t-0.5 60.5q0 18 1 56.5t0 58.5q-46 7 -82.5 10.5 t-62.5 3.5q-155 0 -234 -51.5t-79 -153.5zM356 1149q0 20 43 55t64 58q21 22 57 63q105 117 158 117q41 0 65.5 -23.5t24.5 -62.5q0 -37 -29 -72t-86 -67q-80 -47 -149.5 -74t-102.5 -27q-23 0 -34 8t-11 25z" />
<glyph unicode="&#xe2;" horiz-adv-x="1020" d="M84 293q0 155 126.5 248.5t340.5 93.5q35 0 74.5 -2.5t84.5 -7.5q2 9 2.5 18.5t0.5 22.5q0 104 -58.5 158.5t-169.5 54.5q-92 0 -151.5 -30.5t-96.5 -94.5q-36 9 -54.5 31t-18.5 57q0 73 92.5 120.5t241.5 47.5q183 0 274.5 -88.5t91.5 -264.5q0 -33 -3 -115t-3 -132 q0 -138 16.5 -222t53.5 -135q-39 -25 -71 -38t-56 -13q-43 0 -62.5 26.5t-22.5 85.5q-75 -64 -148.5 -95t-149.5 -31q-150 0 -242 84t-92 221zM250 307q0 -82 55 -129t152 -47q73 0 136.5 27.5t116.5 82.5q-2 50 -2.5 81.5t-0.5 60.5q0 18 1 56.5t0 58.5q-46 7 -82.5 10.5 t-62.5 3.5q-155 0 -234 -51.5t-79 -153.5zM215 1155q0 32 73 108q15 16 24 26l8 9q121 134 186 134q64 0 216 -149l5 -5q51 -51 67.5 -76.5t16.5 -46.5q0 -16 -11 -27.5t-26 -11.5q-25 0 -117 62q-8 5 -12 8l-24 16q-95 64 -115 64q-23 0 -101 -53q-23 -16 -36 -25 q-14 -9 -37 -25q-65 -45 -84 -45q-15 0 -24 10.5t-9 26.5z" />
<glyph unicode="&#xe3;" horiz-adv-x="1020" d="M84 293q0 155 126.5 248.5t340.5 93.5q35 0 74.5 -2.5t84.5 -7.5q2 9 2.5 18.5t0.5 22.5q0 104 -58.5 158.5t-169.5 54.5q-92 0 -151.5 -30.5t-96.5 -94.5q-36 9 -54.5 31t-18.5 57q0 73 92.5 120.5t241.5 47.5q183 0 274.5 -88.5t91.5 -264.5q0 -33 -3 -115t-3 -132 q0 -138 16.5 -222t53.5 -135q-39 -25 -71 -38t-56 -13q-43 0 -62.5 26.5t-22.5 85.5q-75 -64 -148.5 -95t-149.5 -31q-150 0 -242 84t-92 221zM250 307q0 -82 55 -129t152 -47q73 0 136.5 27.5t116.5 82.5q-2 50 -2.5 81.5t-0.5 60.5q0 18 1 56.5t0 58.5q-46 7 -82.5 10.5 t-62.5 3.5q-155 0 -234 -51.5t-79 -153.5zM193 1165q0 71 67 132t150 61q49 0 135 -27.5t121 -27.5q49 0 94.5 35.5t50.5 35.5q13 0 20 -9t7 -26q0 -78 -58 -135t-139 -57q-49 0 -135.5 28.5t-124.5 28.5q-52 0 -103 -40t-57 -40q-14 0 -21 10t-7 31z" />
<glyph unicode="&#xe4;" horiz-adv-x="1020" d="M84 293q0 155 126.5 248.5t340.5 93.5q35 0 74.5 -2.5t84.5 -7.5q2 9 2.5 18.5t0.5 22.5q0 104 -58.5 158.5t-169.5 54.5q-92 0 -151.5 -30.5t-96.5 -94.5q-36 9 -54.5 31t-18.5 57q0 73 92.5 120.5t241.5 47.5q183 0 274.5 -88.5t91.5 -264.5q0 -33 -3 -115t-3 -132 q0 -138 16.5 -222t53.5 -135q-39 -25 -71 -38t-56 -13q-43 0 -62.5 26.5t-22.5 85.5q-75 -64 -148.5 -95t-149.5 -31q-150 0 -242 84t-92 221zM250 307q0 -82 55 -129t152 -47q73 0 136.5 27.5t116.5 82.5q-2 50 -2.5 81.5t-0.5 60.5q0 18 1 56.5t0 58.5q-46 7 -82.5 10.5 t-62.5 3.5q-155 0 -234 -51.5t-79 -153.5zM223 1270q0 49 35 81.5t88 32.5q50 0 81.5 -29.5t31.5 -76.5q0 -49 -35.5 -81t-89.5 -32q-50 0 -80.5 29t-30.5 76zM569 1270q0 49 34 81.5t83 32.5q52 0 84.5 -29.5t32.5 -76.5q0 -49 -35 -81t-90 -32q-49 0 -79 28.5t-30 76.5z " />
<glyph unicode="&#xe5;" horiz-adv-x="1020" d="M84 293q0 155 126.5 248.5t340.5 93.5q35 0 74.5 -2.5t84.5 -7.5q2 11 2.5 21.5t0.5 19.5q0 104 -58.5 158.5t-169.5 54.5q-92 0 -151.5 -30.5t-96.5 -94.5q-36 9 -54.5 31t-18.5 57q0 73 92.5 120.5t241.5 47.5q183 0 274.5 -88.5t91.5 -264.5q0 -33 -3 -115t-3 -132 q0 -138 16.5 -222t53.5 -135q-38 -25 -69 -38t-56 -13q-44 0 -64.5 27t-22.5 85q-75 -64 -148.5 -95t-149.5 -31q-150 0 -242 84t-92 221zM250 307q0 -82 55 -129t152 -47q73 0 135 27t118 83q-2 50 -2.5 81.5t-0.5 60.5q0 18 1 56.5t0 58.5q-46 7 -82.5 10.5t-62.5 3.5 q-155 0 -234 -51.5t-79 -153.5zM264 1348q0 104 71 174.5t177 70.5t177 -70.5t71 -174.5q0 -106 -71 -177t-177 -71t-177 71t-71 177zM371 1346q0 -61 41 -101.5t102 -40.5q60 0 100.5 41t40.5 101q0 61 -40.5 102t-100.5 41q-61 0 -102 -41t-41 -102z" />
<glyph unicode="&#xe6;" horiz-adv-x="1577" d="M84 283q0 159 122.5 255.5t328.5 96.5q35 0 74.5 -2.5t82.5 -7.5v20q0 1 1 3q1 8 1 16q0 105 -57 162t-162 57q-84 0 -146.5 -34t-90.5 -95q-40 12 -57 32.5t-17 55.5q0 71 90.5 119.5t230.5 48.5q118 0 198 -42.5t126 -129.5q58 83 142.5 127.5t187.5 44.5 q164 0 269 -94.5t105 -239.5q0 -112 -86.5 -162.5t-279.5 -50.5q-69 0 -147 5.5t-160 16.5v-39q0 -143 87.5 -227t239.5 -84q72 0 131.5 19t108.5 57q21 -27 32 -50.5t11 -41.5q0 -57 -79 -94t-206 -37t-230 49t-165 139q-89 -94 -180.5 -141t-183.5 -47q-137 0 -229.5 85 t-92.5 210zM250 307q0 -79 53 -125.5t146 -46.5q67 0 133 31.5t139 97.5q-16 43 -23.5 89t-7.5 100v44q-45 8 -82.5 11.5t-62.5 3.5q-142 0 -218.5 -53t-76.5 -152zM852 604q69 -11 140.5 -16.5t146.5 -5.5q124 0 168.5 23t44.5 83q0 88 -61 141.5t-163 53.5 q-107 0 -181 -74.5t-95 -204.5z" />
<glyph unicode="&#xe7;" horiz-adv-x="868" d="M76 436q0 244 166 410t403 166q87 0 129.5 -25t42.5 -76q0 -26 -13 -50.5t-42 -53.5q-39 24 -76 34.5t-82 10.5q-152 0 -253 -109t-101 -276q0 -151 89.5 -239.5t242.5 -88.5q66 0 120 18t101 56q18 -25 27.5 -48t9.5 -44q0 -63 -73 -100t-198 -37q-219 0 -356 125.5 t-137 326.5zM280 -383q0 7 2.5 18t8.5 33q14 -4 25.5 -6t21.5 -2q52 0 85.5 25t33.5 61q0 25 -13 37t-61 20q-54 10 -69 24t-15 42q0 29 27.5 70t93.5 106h92q-37 -40 -56.5 -71t-19.5 -50q0 -26 46 -38l9 -3q58 -15 79.5 -39.5t21.5 -70.5q0 -89 -70 -150t-172 -61 q-35 0 -52.5 13.5t-17.5 41.5z" />
<glyph unicode="&#xe8;" horiz-adv-x="1006" d="M76 483q0 232 136.5 379.5t350.5 147.5q165 0 271 -94t106 -240q0 -115 -88 -164t-299 -49q-79 0 -157.5 5.5t-155.5 16.5v-14q0 -156 92 -247t250 -91q74 0 137 19.5t115 58.5q22 -27 32.5 -50.5t10.5 -45.5q0 -54 -80.5 -88.5t-210.5 -34.5q-239 0 -374.5 130.5 t-135.5 360.5zM252 604q66 -11 145.5 -16.5t171.5 -5.5q125 0 167 23t42 83q0 91 -63 144t-172 53q-116 0 -193 -74t-98 -207zM293 1356q0 38 24 62t64 24q53 0 156 -116q37 -41 59 -64q20 -23 63 -58t43 -55q0 -17 -10.5 -25t-32.5 -8q-32 0 -101.5 27t-152.5 74 q-56 30 -84 65t-28 74z" />
<glyph unicode="&#xe9;" horiz-adv-x="1006" d="M76 483q0 232 136.5 379.5t350.5 147.5q165 0 271 -94t106 -240q0 -115 -88 -164t-299 -49q-79 0 -157.5 5.5t-155.5 16.5v-14q0 -156 92 -247t250 -91q74 0 137 19.5t115 58.5q22 -27 32.5 -50.5t10.5 -45.5q0 -54 -80.5 -88.5t-210.5 -34.5q-239 0 -374.5 130.5 t-135.5 360.5zM252 604q66 -11 145.5 -16.5t171.5 -5.5q125 0 167 23t42 83q0 91 -63 144t-172 53q-116 0 -193 -74t-98 -207zM401 1149q0 20 43 55t64 58q21 22 57 63q105 117 158 117q41 0 65.5 -23.5t24.5 -62.5q0 -37 -29 -72t-86 -67q-80 -47 -149.5 -74t-102.5 -27 q-23 0 -34 8t-11 25z" />
<glyph unicode="&#xea;" horiz-adv-x="1006" d="M76 483q0 232 136.5 379.5t350.5 147.5q165 0 271 -94t106 -240q0 -115 -88 -164t-299 -49q-79 0 -157.5 5.5t-155.5 16.5v-14q0 -156 92 -247t250 -91q74 0 137 19.5t115 58.5q22 -27 32.5 -50.5t10.5 -45.5q0 -54 -80.5 -88.5t-210.5 -34.5q-239 0 -374.5 130.5 t-135.5 360.5zM252 604q66 -11 145.5 -16.5t171.5 -5.5q125 0 167 23t42 83q0 91 -63 144t-172 53q-116 0 -193 -74t-98 -207zM260 1155q0 32 73 108q15 16 24 26l8 9q121 134 186 134q64 0 216 -149l5 -5q51 -51 67.5 -76.5t16.5 -46.5q0 -16 -11 -27.5t-26 -11.5 q-25 0 -117 62q-8 5 -12 8l-24 16q-95 64 -115 64q-23 0 -101 -53q-23 -16 -36 -25q-14 -9 -37 -25q-65 -45 -84 -45q-15 0 -24 10.5t-9 26.5z" />
<glyph unicode="&#xeb;" horiz-adv-x="1006" d="M76 483q0 232 136.5 379.5t350.5 147.5q165 0 271 -94t106 -240q0 -115 -88 -164t-299 -49q-79 0 -157.5 5.5t-155.5 16.5v-14q0 -156 92 -247t250 -91q74 0 137 19.5t115 58.5q22 -27 32.5 -50.5t10.5 -45.5q0 -54 -80.5 -88.5t-210.5 -34.5q-239 0 -374.5 130.5 t-135.5 360.5zM252 604q66 -11 145.5 -16.5t171.5 -5.5q125 0 167 23t42 83q0 91 -63 144t-172 53q-116 0 -193 -74t-98 -207zM268 1270q0 49 35 81.5t88 32.5q50 0 81.5 -29.5t31.5 -76.5q0 -49 -35.5 -81t-89.5 -32q-50 0 -80.5 29t-30.5 76zM614 1270q0 49 34 81.5 t83 32.5q52 0 84.5 -29.5t32.5 -76.5q0 -49 -35 -81t-90 -32q-49 0 -79 28.5t-30 76.5z" />
<glyph unicode="&#xec;" horiz-adv-x="516" d="M121 950q37 22 76 33.5t77 11.5q46 0 63 -22.5t17 -83.5q0 -16 -9 -175t-9 -302q0 -134 13.5 -222t41.5 -145q-42 -23 -80 -34t-73 -11q-49 0 -66.5 26.5t-17.5 106.5q0 46 9 206t9 275q0 125 -12 203t-39 133zM-6 1356q0 38 24 62t64 24q53 0 156 -116q37 -41 59 -64 q20 -23 63 -58t43 -55q0 -17 -10.5 -25t-32.5 -8q-32 0 -101.5 27t-152.5 74q-56 30 -84 65t-28 74z" />
<glyph unicode="&#xed;" horiz-adv-x="516" d="M121 950q37 22 76 33.5t77 11.5q46 0 63 -22.5t17 -83.5q0 -16 -9 -175t-9 -302q0 -134 13.5 -222t41.5 -145q-42 -23 -80 -34t-73 -11q-49 0 -66.5 26.5t-17.5 106.5q0 46 9 206t9 275q0 125 -12 203t-39 133zM102 1149q0 20 43 55t64 58q21 22 57 63q105 117 158 117 q41 0 65.5 -23.5t24.5 -62.5q0 -37 -29 -72t-86 -67q-80 -47 -149.5 -74t-102.5 -27q-23 0 -34 8t-11 25z" />
<glyph unicode="&#xee;" horiz-adv-x="516" d="M121 950q37 22 76 33.5t77 11.5q46 0 63 -22.5t17 -83.5q0 -16 -9 -175t-9 -302q0 -134 13.5 -222t41.5 -145q-42 -23 -80 -34t-73 -11q-49 0 -66.5 26.5t-17.5 106.5q0 46 9 206t9 275q0 125 -12 203t-39 133zM-39 1155q0 32 73 108q15 16 24 26l8 9q121 134 186 134 q64 0 216 -149l5 -5q51 -51 67.5 -76.5t16.5 -46.5q0 -16 -11 -27.5t-26 -11.5q-25 0 -117 62q-8 5 -12 8l-24 16q-95 64 -115 64q-23 0 -101 -53q-23 -16 -36 -25q-14 -9 -37 -25q-65 -45 -84 -45q-15 0 -24 10.5t-9 26.5z" />
<glyph unicode="&#xef;" horiz-adv-x="516" d="M121 950q37 22 76 33.5t77 11.5q46 0 63 -22.5t17 -83.5q0 -16 -9 -175t-9 -302q0 -134 13.5 -222t41.5 -145q-42 -23 -80 -34t-73 -11q-49 0 -66.5 26.5t-17.5 106.5q0 46 9 206t9 275q0 125 -12 203t-39 133zM-31 1270q0 49 35 81.5t88 32.5q50 0 81.5 -29.5 t31.5 -76.5q0 -49 -35.5 -81t-89.5 -32q-50 0 -80.5 29t-30.5 76zM315 1270q0 49 34 81.5t83 32.5q52 0 84.5 -29.5t32.5 -76.5q0 -49 -35 -81t-90 -32q-49 0 -79 28.5t-30 76.5z" />
<glyph unicode="&#xf0;" horiz-adv-x="1229" d="M76 465q0 231 150.5 372.5t396.5 141.5q100 0 183.5 -31.5t151.5 -95.5q-22 81 -55.5 151t-79.5 132q-20 -8 -57 -23q-188 -74 -227 -74q-22 0 -36 17t-14 43q0 6 1.5 15.5t5.5 25.5q4 0 11.5 -1t10.5 -1q33 0 96 18.5t150 54.5q-48 57 -104 87t-113 30q-7 0 -15.5 -1 t-19.5 -3q-8 25 -12 44t-4 34q0 34 20 50.5t59 16.5q84 0 167.5 -50t175.5 -156q24 8 68 24q146 53 169 53q22 0 35.5 -17.5t13.5 -45.5q0 -10 -1 -19t-3 -18q-2 1 -6 1.5t-12 0.5q-30 0 -84.5 -14.5t-132.5 -42.5q94 -147 143 -309t49 -324q0 -256 -155.5 -416t-401.5 -160 q-231 0 -377.5 137t-146.5 353zM248 479q0 -159 101 -258.5t263 -99.5t265.5 102t103.5 260q0 157 -102 256t-265 99q-161 0 -263.5 -100.5t-102.5 -258.5z" />
<glyph unicode="&#xf1;" horiz-adv-x="1151" d="M117 993q22 7 44.5 11t43.5 4q53 0 84 -29.5t35 -83.5q75 54 159 83.5t166 29.5q100 0 179.5 -43.5t121.5 -120.5q29 -53 41.5 -123.5t12.5 -214.5q0 -15 -1.5 -71t-1.5 -97q0 -103 13.5 -177t40.5 -116q-47 -23 -81.5 -34t-62.5 -11q-47 0 -65.5 24.5t-18.5 92.5 q0 41 6.5 176.5t6.5 230.5q0 181 -55 262.5t-177 81.5q-62 0 -134 -25.5t-146 -74.5q-2 -110 -5.5 -236.5t-2.5 -142.5q0 -130 11.5 -211t37.5 -135q-42 -22 -77 -32.5t-69 -10.5q-46 0 -63 26t-17 109q0 18 10.5 185.5t10.5 316.5q0 141 -11 218t-36 138zM256 1165 q0 71 67 132t150 61q49 0 135 -27.5t121 -27.5q49 0 94.5 35.5t50.5 35.5q13 0 20 -9t7 -26q0 -78 -58 -135t-139 -57q-49 0 -135.5 28.5t-124.5 28.5q-52 0 -103 -40t-57 -40q-14 0 -21 10t-7 31z" />
<glyph unicode="&#xf2;" horiz-adv-x="1229" d="M76 485q0 238 156 386.5t405 148.5q225 0 370.5 -141t145.5 -357q0 -87 -27.5 -172t-74.5 -145q-89 -115 -201.5 -172.5t-249.5 -57.5q-232 0 -378 143t-146 367zM248 485q0 -159 103 -262.5t261 -103.5q162 0 265.5 108.5t103.5 278.5q0 166 -101.5 270.5t-263.5 104.5 q-165 0 -266.5 -108.5t-101.5 -287.5zM361 1356q0 38 24 62t64 24q53 0 156 -116q37 -41 59 -64q20 -23 63 -58t43 -55q0 -17 -10.5 -25t-32.5 -8q-32 0 -101.5 27t-152.5 74q-56 30 -84 65t-28 74z" />
<glyph unicode="&#xf3;" horiz-adv-x="1229" d="M76 485q0 238 156 386.5t405 148.5q225 0 370.5 -141t145.5 -357q0 -87 -27.5 -172t-74.5 -145q-89 -115 -201.5 -172.5t-249.5 -57.5q-232 0 -378 143t-146 367zM248 485q0 -159 103 -262.5t261 -103.5q162 0 265.5 108.5t103.5 278.5q0 166 -101.5 270.5t-263.5 104.5 q-165 0 -266.5 -108.5t-101.5 -287.5zM469 1149q0 20 43 55t64 58q21 22 57 63q105 117 158 117q41 0 65.5 -23.5t24.5 -62.5q0 -37 -29 -72t-86 -67q-80 -47 -149.5 -74t-102.5 -27q-23 0 -34 8t-11 25z" />
<glyph unicode="&#xf4;" horiz-adv-x="1229" d="M76 485q0 238 156 386.5t405 148.5q225 0 370.5 -141t145.5 -357q0 -87 -27.5 -172t-74.5 -145q-89 -115 -201.5 -172.5t-249.5 -57.5q-232 0 -378 143t-146 367zM248 485q0 -159 103 -262.5t261 -103.5q162 0 265.5 108.5t103.5 278.5q0 166 -101.5 270.5t-263.5 104.5 q-165 0 -266.5 -108.5t-101.5 -287.5zM328 1155q0 32 73 108q15 16 24 26l8 9q121 134 186 134q64 0 216 -149l5 -5q51 -51 67.5 -76.5t16.5 -46.5q0 -16 -11 -27.5t-26 -11.5q-25 0 -117 62q-8 5 -12 8l-24 16q-95 64 -115 64q-23 0 -101 -53q-23 -16 -36 -25 q-14 -9 -37 -25q-65 -45 -84 -45q-15 0 -24 10.5t-9 26.5z" />
<glyph unicode="&#xf5;" horiz-adv-x="1229" d="M76 485q0 238 156 386.5t405 148.5q225 0 370.5 -141t145.5 -357q0 -87 -27.5 -172t-74.5 -145q-89 -115 -201.5 -172.5t-249.5 -57.5q-232 0 -378 143t-146 367zM248 485q0 -159 103 -262.5t261 -103.5q162 0 265.5 108.5t103.5 278.5q0 166 -101.5 270.5t-263.5 104.5 q-165 0 -266.5 -108.5t-101.5 -287.5zM306 1165q0 71 67 132t150 61q49 0 135 -27.5t121 -27.5q49 0 94.5 35.5t50.5 35.5q13 0 20 -9t7 -26q0 -78 -58 -135t-139 -57q-49 0 -135.5 28.5t-124.5 28.5q-52 0 -103 -40t-57 -40q-14 0 -21 10t-7 31z" />
<glyph unicode="&#xf6;" horiz-adv-x="1229" d="M76 485q0 238 156 386.5t405 148.5q225 0 370.5 -141t145.5 -357q0 -87 -27.5 -172t-74.5 -145q-89 -115 -201.5 -172.5t-249.5 -57.5q-232 0 -378 143t-146 367zM248 485q0 -159 103 -262.5t261 -103.5q162 0 265.5 108.5t103.5 278.5q0 166 -101.5 270.5t-263.5 104.5 q-165 0 -266.5 -108.5t-101.5 -287.5zM336 1270q0 49 35 81.5t88 32.5q50 0 81.5 -29.5t31.5 -76.5q0 -49 -35.5 -81t-89.5 -32q-50 0 -80.5 29t-30.5 76zM682 1270q0 49 34 81.5t83 32.5q52 0 84.5 -29.5t32.5 -76.5q0 -49 -35 -81t-90 -32q-49 0 -79 28.5t-30 76.5z" />
<glyph unicode="&#xf7;" horiz-adv-x="1706" d="M248 610q0 36 25 56t69 20h1024q39 0 65.5 -22t26.5 -54q0 -34 -25.5 -54.5t-68.5 -20.5h-1024q-38 0 -65 22.5t-27 52.5zM719 250q0 56 39.5 95.5t95.5 39.5q55 0 95 -40t40 -95q0 -57 -39 -96t-96 -39t-96 39t-39 96zM719 971q0 55 40 95t95 40q57 0 96 -39t39 -96 t-39 -96t-96 -39t-96 38.5t-39 96.5z" />
<glyph unicode="&#xf8;" horiz-adv-x="1229" d="M66 -82q0 27 30 72t117 141q-71 79 -104 164t-33 190q0 237 156 386t405 149q69 0 138 -18t130 -52q38 50 64.5 98t42.5 95q64 0 97.5 -16t33.5 -48q0 -31 -106 -161q-22 -27 -33 -41q75 -74 111 -161.5t36 -195.5q0 -229 -162 -387t-401 -158q-81 0 -152 22t-131 64 q-41 -51 -70 -100.5t-47 -101.5h-8q-53 0 -83.5 16t-30.5 43zM240 487q0 -69 17 -123t54 -102q137 148 263.5 291.5t238.5 280.5q-34 25 -82 39t-104 14q-179 0 -283 -107.5t-104 -292.5zM401 176q45 -32 97 -47.5t114 -15.5q166 0 271.5 111.5t105.5 287.5q0 72 -19.5 131 t-60.5 111q-144 -157 -272 -303t-236 -275z" />
<glyph unicode="&#xf9;" horiz-adv-x="1118" d="M96 954q45 22 78.5 32.5t56.5 10.5q47 0 64.5 -23.5t17.5 -86.5q0 -50 -8 -191.5t-8 -232.5q0 -191 46 -264.5t159 -73.5q83 0 153.5 40t137.5 126q4 64 6 134.5t2 154.5q0 136 -13.5 227.5t-42.5 144.5q45 23 80 34t64 11q44 0 61 -28t17 -121q0 -44 -5.5 -193.5 t-5.5 -255.5q0 -148 12.5 -228.5t41.5 -125.5q-50 -24 -83 -34.5t-57 -10.5q-43 0 -59 29.5t-16 115.5q-68 -83 -146 -122t-176 -39q-165 0 -252.5 99.5t-87.5 287.5q0 40 5 147.5t5 175.5q0 91 -11 152.5t-36 107.5zM295 1356q0 38 24 62t64 24q53 0 156 -116 q37 -41 59 -64q20 -23 63 -58t43 -55q0 -17 -10.5 -25t-32.5 -8q-32 0 -101.5 27t-152.5 74q-56 30 -84 65t-28 74z" />
<glyph unicode="&#xfa;" horiz-adv-x="1118" d="M96 954q45 22 78.5 32.5t56.5 10.5q47 0 64.5 -23.5t17.5 -86.5q0 -50 -8 -191.5t-8 -232.5q0 -191 46 -264.5t159 -73.5q83 0 153.5 40t137.5 126q4 64 6 134.5t2 154.5q0 136 -13.5 227.5t-42.5 144.5q45 23 80 34t64 11q44 0 61 -28t17 -121q0 -44 -5.5 -193.5 t-5.5 -255.5q0 -148 12.5 -228.5t41.5 -125.5q-50 -24 -83 -34.5t-57 -10.5q-43 0 -59 29.5t-16 115.5q-68 -83 -146 -122t-176 -39q-165 0 -252.5 99.5t-87.5 287.5q0 40 5 147.5t5 175.5q0 91 -11 152.5t-36 107.5zM403 1149q0 20 43 55t64 58q21 22 57 63 q105 117 158 117q41 0 65.5 -23.5t24.5 -62.5q0 -37 -29 -72t-86 -67q-80 -47 -149.5 -74t-102.5 -27q-23 0 -34 8t-11 25z" />
<glyph unicode="&#xfb;" horiz-adv-x="1118" d="M96 954q45 22 78.5 32.5t56.5 10.5q47 0 64.5 -23.5t17.5 -86.5q0 -50 -8 -191.5t-8 -232.5q0 -191 46 -264.5t159 -73.5q83 0 153.5 40t137.5 126q4 64 6 134.5t2 154.5q0 136 -13.5 227.5t-42.5 144.5q45 23 80 34t64 11q44 0 61 -28t17 -121q0 -44 -5.5 -193.5 t-5.5 -255.5q0 -148 12.5 -228.5t41.5 -125.5q-50 -24 -83 -34.5t-57 -10.5q-43 0 -59 29.5t-16 115.5q-68 -83 -146 -122t-176 -39q-165 0 -252.5 99.5t-87.5 287.5q0 40 5 147.5t5 175.5q0 91 -11 152.5t-36 107.5zM262 1155q0 32 73 108q15 16 24 26l8 9q121 134 186 134 q64 0 216 -149l5 -5q51 -51 67.5 -76.5t16.5 -46.5q0 -16 -11 -27.5t-26 -11.5q-25 0 -117 62q-8 5 -12 8l-24 16q-95 64 -115 64q-23 0 -101 -53q-23 -16 -36 -25q-14 -9 -37 -25q-65 -45 -84 -45q-15 0 -24 10.5t-9 26.5z" />
<glyph unicode="&#xfc;" horiz-adv-x="1118" d="M96 954q45 22 78.5 32.5t56.5 10.5q47 0 64.5 -23.5t17.5 -86.5q0 -50 -8 -191.5t-8 -232.5q0 -191 46 -264.5t159 -73.5q83 0 153.5 40t137.5 126q4 64 6 134.5t2 154.5q0 136 -13.5 227.5t-42.5 144.5q45 23 80 34t64 11q44 0 61 -28t17 -121q0 -44 -5.5 -193.5 t-5.5 -255.5q0 -148 12.5 -228.5t41.5 -125.5q-50 -24 -83 -34.5t-57 -10.5q-43 0 -59 29.5t-16 115.5q-68 -83 -146 -122t-176 -39q-165 0 -252.5 99.5t-87.5 287.5q0 40 5 147.5t5 175.5q0 91 -11 152.5t-36 107.5zM270 1270q0 49 35 81.5t88 32.5q50 0 81.5 -29.5 t31.5 -76.5q0 -49 -35.5 -81t-89.5 -32q-50 0 -80.5 29t-30.5 76zM616 1270q0 49 34 81.5t83 32.5q52 0 84.5 -29.5t32.5 -76.5q0 -49 -35 -81t-90 -32q-49 0 -79 28.5t-30 76.5z" />
<glyph unicode="&#xfd;" horiz-adv-x="1069" d="M16 819q20 82 57 129t80 47q31 0 51 -14.5t39 -53.5q5 -10 105 -252.5t210 -471.5q138 291 206.5 468t68.5 244q0 13 -2.5 25t-5.5 23q7 2 22 7q73 25 104 25q36 0 57 -20t21 -53q0 -43 -141.5 -336t-241.5 -537q-30 -73 -77 -195q-106 -276 -169 -276q-33 0 -70 30.5 t-73 86.5q51 41 93.5 100.5t82.5 147.5l33 69q-215 504 -300.5 650t-149.5 157zM378 1149q0 20 43 55t64 58q21 22 57 63q105 117 158 117q41 0 65.5 -23.5t24.5 -62.5q0 -37 -29 -72t-86 -67q-80 -47 -149.5 -74t-102.5 -27q-23 0 -34 8t-11 25z" />
<glyph unicode="&#xfe;" horiz-adv-x="1190" d="M106 1425q41 23 78 34t70 11q50 0 68 -25t18 -102q0 -76 -4 -185.5t-12 -272.5q82 54 160.5 81t154.5 27q204 0 339.5 -134.5t135.5 -336.5q0 -83 -26 -163t-70 -138q-86 -110 -193 -165.5t-233 -55.5q-83 0 -151 20t-126 62v-47q0 -173 12 -276t38 -158 q-41 -22 -76.5 -32.5t-67.5 -10.5q-45 0 -62.5 24.5t-17.5 91.5q0 13 4 87q23 490 23 1017q0 307 -14 444.5t-48 202.5zM320 223q66 -43 132 -64.5t134 -21.5q156 0 257 101.5t101 257.5q0 162 -92.5 260t-245.5 98q-69 0 -140 -25.5t-140 -74.5q-2 -94 -3.5 -226.5 t-2.5 -304.5z" />
<glyph unicode="&#xff;" horiz-adv-x="1069" d="M16 819q20 82 57 129t80 47q31 0 51 -14.5t39 -53.5q5 -10 105 -252.5t210 -471.5q138 291 206.5 468t68.5 244q0 13 -2.5 25t-5.5 23q7 2 22 7q73 25 104 25q36 0 57 -20t21 -53q0 -43 -141.5 -336t-241.5 -537q-30 -73 -77 -195q-106 -276 -169 -276q-33 0 -70 30.5 t-73 86.5q51 41 93.5 100.5t82.5 147.5l33 69q-215 504 -300.5 650t-149.5 157zM245 1270q0 49 35 81.5t88 32.5q50 0 81.5 -29.5t31.5 -76.5q0 -49 -35.5 -81t-89.5 -32q-50 0 -80.5 29t-30.5 76zM591 1270q0 49 34 81.5t83 32.5q52 0 84.5 -29.5t32.5 -76.5q0 -49 -35 -81 t-90 -32q-49 0 -79 28.5t-30 76.5z" />
<glyph unicode="&#x131;" horiz-adv-x="516" d="M121 950q37 22 76 33.5t77 11.5q46 0 63 -22.5t17 -83.5q0 -16 -9 -175t-9 -302q0 -134 13.5 -222t41.5 -145q-42 -23 -80 -34t-73 -11q-49 0 -66.5 26.5t-17.5 106.5q0 46 9 206t9 275q0 125 -12 203t-39 133z" />
<glyph unicode="&#x152;" horiz-adv-x="2257" d="M80 707q0 163 58.5 303t172.5 247q112 106 258 159.5t320 53.5q154 0 283.5 -49.5t240.5 -150.5q-3 40 -9 79.5t-15 79.5l124 1q231 0 472 15q51 3 61 3q80 0 109.5 -18t29.5 -64q0 -25 -11 -58.5t-32 -72.5q-49 25 -128.5 36t-225.5 11q-12 0 -77.5 -1.5t-117.5 -2.5 l-6 -442q28 -1 57.5 -1.5t71.5 -0.5q155 0 248.5 6t124.5 18q12 -28 18.5 -49.5t6.5 -38.5q0 -49 -30 -69.5t-104 -20.5q-23 0 -113 2t-157 2q-50 0 -77 -0.5t-50 -2.5q0 -142 -2.5 -271.5t-7.5 -247.5q8 0 24 -1q134 -3 193 -3q109 0 185 12.5t132 40.5q20 -37 29.5 -66.5 t9.5 -54.5q0 -54 -35 -74t-165 -20q-53 0 -150.5 3t-142.5 3q-56 0 -115 -3t-63 -3q-39 0 -54.5 13t-15.5 44q0 7 3.5 72t4.5 124q-114 -140 -260.5 -209t-331.5 -69q-155 0 -289 50.5t-235 146.5q-108 102 -162.5 237t-54.5 302zM289 721q0 -259 153 -421.5t398 -162.5 q260 0 423.5 172t163.5 445q0 253 -152 405t-407 152q-263 0 -421 -161t-158 -429z" />
<glyph unicode="&#x153;" horiz-adv-x="1835" d="M76 485q0 234 149 384.5t381 150.5q136 0 239 -59.5t169 -176.5q61 111 157.5 168.5t221.5 57.5q167 0 273 -93.5t106 -240.5q0 -115 -88.5 -164t-301.5 -49q-61 0 -136 5.5t-156 16.5v-34q0 -137 93.5 -227.5t237.5 -90.5q72 0 133 19.5t111 58.5q23 -29 33 -51.5 t10 -42.5q0 -57 -78 -91t-209 -34q-147 0 -250.5 54t-175.5 169q-84 -119 -191 -179.5t-235 -60.5q-213 0 -353 144.5t-140 365.5zM248 487q0 -159 97 -263.5t241 -104.5q149 0 246.5 108.5t97.5 278.5q0 164 -96 269.5t-244 105.5q-152 0 -247 -108.5t-95 -285.5zM1102 605 q61 -12 133.5 -17.5t155.5 -5.5q131 0 175 23t44 83q0 88 -62.5 142.5t-165.5 54.5q-109 0 -185 -75.5t-95 -204.5z" />
<glyph unicode="&#x178;" horiz-adv-x="1219" d="M-2 1288q24 83 60 125.5t83 42.5q26 0 47 -14t45 -49q10 -14 55 -93q162 -288 326 -542q203 293 284 437.5t81 207.5q0 9 -1.5 16.5t-4.5 13.5q34 9 64.5 13t56.5 4q39 0 60.5 -18.5t21.5 -53.5q0 -52 -243 -401q-149 -214 -241 -350q0 -24 -1 -70.5t-1 -67.5 q0 -174 14 -278.5t44 -161.5q-48 -25 -89 -37t-79 -12q-51 0 -71 27.5t-20 97.5q0 14 7.5 171.5t11.5 305.5q-192 337 -320 509t-190 177zM323 1721q0 49 35 81.5t88 32.5q50 0 81.5 -29.5t31.5 -76.5q0 -49 -35.5 -81t-89.5 -32q-50 0 -80.5 29t-30.5 76zM669 1721 q0 49 34 81.5t83 32.5q52 0 84.5 -29.5t32.5 -76.5q0 -49 -35 -81t-90 -32q-49 0 -79 28.5t-30 76.5z" />
<glyph unicode="&#x2c6;" d="M215 1155q0 32 73 108q15 16 24 26l8 9q121 134 186 134q64 0 216 -149l5 -5q51 -51 67.5 -76.5t16.5 -46.5q0 -16 -11 -27.5t-26 -11.5q-25 0 -117 62q-8 5 -12 8l-24 16q-95 64 -115 64q-23 0 -101 -53q-23 -16 -36 -25q-14 -9 -37 -25q-65 -45 -84 -45q-15 0 -24 10.5 t-9 26.5z" />
<glyph unicode="&#x2dc;" d="M193 1165q0 71 67 132t150 61q49 0 135 -27.5t121 -27.5q49 0 94.5 35.5t50.5 35.5q13 0 20 -9t7 -26q0 -78 -58 -135t-139 -57q-49 0 -135.5 28.5t-124.5 28.5q-52 0 -103 -40t-57 -40q-14 0 -21 10t-7 31z" />
<glyph unicode="&#x2000;" horiz-adv-x="986" />
<glyph unicode="&#x2001;" horiz-adv-x="1972" />
<glyph unicode="&#x2002;" horiz-adv-x="986" />
<glyph unicode="&#x2003;" horiz-adv-x="1972" />
<glyph unicode="&#x2004;" horiz-adv-x="657" />
<glyph unicode="&#x2005;" horiz-adv-x="493" />
<glyph unicode="&#x2006;" horiz-adv-x="328" />
<glyph unicode="&#x2007;" horiz-adv-x="328" />
<glyph unicode="&#x2008;" horiz-adv-x="246" />
<glyph unicode="&#x2009;" horiz-adv-x="394" />
<glyph unicode="&#x200a;" horiz-adv-x="109" />
<glyph unicode="&#x2010;" horiz-adv-x="631" d="M76 473q0 67 33 98t106 31q34 0 114 -8t126 -8q26 0 50.5 4.5t45.5 13.5q1 -15 2.5 -34t1.5 -21q0 -67 -33.5 -98t-105.5 -31q-40 0 -115.5 9t-112.5 9q-31 0 -58 -5t-52 -15q-1 11 -1.5 23.5t-0.5 31.5z" />
<glyph unicode="&#x2011;" horiz-adv-x="631" d="M76 473q0 67 33 98t106 31q34 0 114 -8t126 -8q26 0 50.5 4.5t45.5 13.5q1 -15 2.5 -34t1.5 -21q0 -67 -33.5 -98t-105.5 -31q-40 0 -115.5 9t-112.5 9q-31 0 -58 -5t-52 -15q-1 11 -1.5 23.5t-0.5 31.5z" />
<glyph unicode="&#x2012;" horiz-adv-x="631" d="M76 473q0 67 33 98t106 31q34 0 114 -8t126 -8q26 0 50.5 4.5t45.5 13.5q1 -15 2.5 -34t1.5 -21q0 -67 -33.5 -98t-105.5 -31q-40 0 -115.5 9t-112.5 9q-31 0 -58 -5t-52 -15q-1 11 -1.5 23.5t-0.5 31.5z" />
<glyph unicode="&#x2013;" d="M-14 457v108h1052v-108h-1052z" />
<glyph unicode="&#x2014;" horiz-adv-x="2048" d="M-14 457v108h2076v-108h-2076z" />
<glyph unicode="&#x2018;" horiz-adv-x="584" d="M137 1184q0 119 75.5 197.5t201.5 88.5v-12l-15 -6q-41 -17 -70.5 -61t-29.5 -88q0 -45 50 -72q8 -4 11 -6q42 -24 55 -43.5t13 -48.5q0 -52 -35.5 -83.5t-93.5 -31.5q-72 0 -117 46t-45 120z" />
<glyph unicode="&#x2019;" horiz-adv-x="584" d="M90 1354q0 50 36 83t91 33q80 0 131 -55.5t51 -142.5q0 -83 -54 -148t-157 -106l-4 12l11 10q38 41 52.5 70.5t14.5 63.5q0 22 -11 39.5t-28 23.5q-12 5 -40 12q-93 22 -93 105z" />
<glyph unicode="&#x201a;" horiz-adv-x="584" d="M129 135q0 52 35.5 84.5t91.5 32.5q81 0 131.5 -55.5t50.5 -143.5q0 -82 -54.5 -148t-156.5 -106l-4 13l10 10q34 34 50 65.5t16 65.5q0 24 -7 38.5t-24 24.5q-7 5 -39 12t-53 17q-23 11 -35 34t-12 56z" />
<glyph unicode="&#x201c;" horiz-adv-x="991" d="M137 1184q0 119 76 198t201 88v-14l-17 -6q-43 -22 -70.5 -60.5t-27.5 -76.5q0 -28 7 -45.5t20 -24.5q11 -7 30 -17q72 -39 72 -93q0 -52 -35.5 -83.5t-93.5 -31.5q-72 0 -117 46t-45 120zM565 1184q0 119 76 198t201 88v-14l-17 -6q-43 -22 -70.5 -60.5t-27.5 -76.5 q0 -28 7 -45.5t20 -24.5q10 -6 30 -17q72 -39 72 -93q0 -52 -35.5 -83.5t-93.5 -31.5q-72 0 -117 46t-45 120z" />
<glyph unicode="&#x201d;" horiz-adv-x="991" d="M90 1354q0 50 36 83t91 33q80 0 131 -55.5t51 -142.5q0 -83 -54.5 -149t-156.5 -105l-4 12l11 10q36 39 50.5 69.5t14.5 66.5q0 20 -7.5 35t-23.5 24q-11 6 -40 12q-99 21 -99 107zM498 1354q0 50 35.5 83t91.5 33q80 0 131 -55.5t51 -142.5q0 -82 -54.5 -147.5 t-156.5 -106.5l-4 12l10 10q34 34 50 67t16 69q0 20 -8 35t-23 24q-11 6 -40 12q-99 23 -99 107z" />
<glyph unicode="&#x201e;" horiz-adv-x="991" d="M129 135q0 52 35.5 84.5t91.5 32.5q81 0 131.5 -55.5t50.5 -143.5q0 -82 -54.5 -148t-156.5 -106l-4 13l10 10q34 34 50 65.5t16 65.5q0 24 -7 38.5t-24 24.5q-7 5 -39 12t-53 17q-23 11 -35 34t-12 56zM537 135q0 52 35 84.5t92 32.5q81 0 131.5 -55.5t50.5 -143.5 q0 -83 -55.5 -149.5t-155.5 -104.5l-4 13l10 10q35 35 50.5 67.5t15.5 71.5q0 22 -11.5 38.5t-30.5 21.5q-8 2 -21 6q-107 30 -107 108z" />
<glyph unicode="&#x2022;" horiz-adv-x="1208" d="M307 762q0 124 85.5 209.5t211.5 85.5q124 0 209.5 -85.5t85.5 -209.5q0 -123 -87 -210t-210 -87q-124 0 -209.5 85.5t-85.5 211.5z" />
<glyph unicode="&#x2026;" horiz-adv-x="2048" d="M193 113q0 60 40 97.5t105 37.5q60 0 95.5 -35t35.5 -94q0 -55 -42.5 -93t-104.5 -38q-57 0 -93 34.5t-36 90.5zM874 113q0 60 40.5 97.5t105.5 37.5q61 0 96 -34.5t35 -94.5q0 -55 -42.5 -93t-104.5 -38q-57 0 -93.5 34.5t-36.5 90.5zM1559 113q0 60 40 97.5t105 37.5 q61 0 96 -34.5t35 -94.5q0 -55 -42.5 -93t-104.5 -38q-57 0 -93 34.5t-36 90.5z" />
<glyph unicode="&#x202f;" horiz-adv-x="394" />
<glyph unicode="&#x2039;" horiz-adv-x="422" d="M76 498q0 35 22 76t70 92q36 39 67.5 60.5t53.5 21.5q19 0 31 -11.5t12 -29.5q0 -14 -42 -85t-42 -124q0 -57 42 -127.5t42 -83.5q0 -18 -12 -29.5t-31 -11.5q-22 0 -53.5 21.5t-67.5 60.5q-48 51 -70 92t-22 78z" />
<glyph unicode="&#x203a;" horiz-adv-x="422" d="M90 287q0 15 42 85.5t42 123.5q0 55 -42 126t-42 85q0 18 11 29.5t28 11.5q24 0 56 -21t69 -61q48 -51 70 -92t22 -78q0 -35 -23 -77t-69 -91q-37 -40 -69 -61t-56 -21q-17 0 -28 11.5t-11 29.5z" />
<glyph unicode="&#x205f;" horiz-adv-x="493" />
<glyph unicode="&#x20ac;" horiz-adv-x="1204" d="M-10 582q0 23 27 55l14 16q31 -4 80 -8l-2 41q0 24 4 64q-123 0 -123 61q0 23 27 55q10 11 14 17q48 -9 100 -9q63 241 272 402.5t500 161.5q117 0 164 -22.5t47 -76.5q0 -45 -45 -129q-98 50 -223 50q-200 0 -340.5 -101t-188.5 -285h191q94 0 187.5 8.5t187.5 8.5 q129 0 129 -72q0 -17 -20 -40q-10 -10 -13 -15q-74 6 -152 6l-376 -8q-76 0 -152 -6q-2 -16 -2 -49l2 -62h209q83 0 167 8q84 9 167 9q129 0 129 -72q0 -17 -20 -40q-10 -10 -13 -15q-74 6 -152 6l-335 -9q-48 0 -132 -4q48 -179 178 -278.5t308 -99.5q138 0 260 77 q51 -73 51 -123q0 -60 -77 -95.5t-216 -35.5q-280 0 -465.5 158t-232.5 389h-12q-123 0 -123 62z" />
<glyph unicode="&#x2122;" horiz-adv-x="1444" d="M-4 1393q0 23 18 34t58 11q12 0 95 -3t155 -3q84 0 126.5 6.5t75.5 21.5q14 -15 21.5 -30.5t7.5 -28.5q0 -27 -22.5 -41t-65.5 -14q-6 0 -50.5 1.5t-82.5 1.5q-3 -70 -4.5 -128.5t-1.5 -106.5q0 -81 8 -130t26 -77q-30 -14 -54.5 -21t-43.5 -7q-29 0 -42 14.5t-13 48.5 q0 11 4 103.5t4 175.5q0 30 -1 61t-3 68q-86 0 -127 -6t-59 -19q-16 22 -22.5 38t-6.5 30zM535 905q37 75 57 178.5t20 223.5q0 38 -3.5 61.5t-12.5 44.5q20 15 37 23t31 8q58 0 157 -174q77 -135 135 -221q47 73 114 193q114 202 171 202q19 0 36.5 -7.5t34.5 -22.5 q-9 -27 -13.5 -55t-4.5 -71q0 -115 22.5 -221.5t55.5 -159.5q-23 -15 -46 -22.5t-46 -7.5q-69 0 -77 173q-6 126 -17 214q-58 -91 -132 -225q-76 -140 -108 -140q-38 0 -120 148q-69 127 -124 210q-6 -73 -12 -184q-9 -194 -72 -194q-16 0 -37.5 6.5t-45.5 19.5z" />
<glyph unicode="&#xe000;" horiz-adv-x="1010" d="M0 1010h1010v-1010h-1010v1010z" />
<glyph unicode="&#xfb01;" horiz-adv-x="1151" d="M756 950q37 22 76 33.5t77 11.5q46 0 63 -22.5t17 -83.5q0 -16 -9 -175t-9 -302q0 -134 13.5 -222t41.5 -145q-42 -23 -80 -34t-73 -11q-49 0 -66.5 26.5t-17.5 106.5q0 46 9 206t9 275q0 125 -12 203t-39 133zM762 1278q0 56 40 95.5t97 39.5q52 0 85.5 -32t33.5 -81 q0 -57 -40 -95t-101 -38q-53 0 -84 30t-31 81zM55 874q0 15 5 31t14 31q10 0 25.5 -1t21.5 -1h78v22q0 246 92.5 377t265.5 131q69 0 111.5 -28.5t42.5 -73.5q0 -31 -23 -57t-65 -45q-23 27 -49 41t-54 14q-80 0 -116.5 -80.5t-36.5 -257.5v-33q35 4 80 6t94 2 q32 0 48.5 -15.5t16.5 -47.5q0 -11 -4.5 -26.5t-19.5 -49.5q-23 9 -59.5 12.5t-112.5 3.5q-18 0 -27.5 -0.5t-17.5 -1.5q0 -217 7 -447t7 -243q0 -81 -18 -109t-64 -28q-32 0 -69 12t-83 37q31 59 45.5 176t14.5 312q0 71 -4 246v36q-22 0 -51 -1t-37 -1q-28 0 -43 15 t-15 42z" />
<glyph unicode="&#xfb02;" horiz-adv-x="1165" d="M760 1425q40 23 77 34t70 11q50 0 68 -25t18 -102q0 -64 -11 -336t-11 -479q0 -222 12.5 -324t42.5 -159q-42 -23 -78.5 -34t-68.5 -11q-48 0 -66 27.5t-18 103.5q0 95 11 361.5t11 439.5q0 214 -13 324.5t-44 168.5zM55 874q0 15 5 31t14 31q10 0 25.5 -1t21.5 -1h78v22 q0 246 92.5 377t265.5 131q69 0 111.5 -28.5t42.5 -73.5q0 -31 -23 -57t-65 -45q-23 27 -49 41t-54 14q-80 0 -116.5 -80.5t-36.5 -257.5v-33q35 4 80 6t94 2q32 0 48.5 -15.5t16.5 -47.5q0 -11 -4.5 -26.5t-19.5 -49.5q-23 9 -59.5 12.5t-112.5 3.5q-18 0 -27.5 -0.5 t-17.5 -1.5q0 -217 7 -447t7 -243q0 -81 -18 -109t-64 -28q-32 0 -69 12t-83 37q31 59 45.5 176t14.5 312q0 71 -4 246v36q-22 0 -51 -1t-37 -1q-28 0 -43 15t-15 42z" />
<glyph unicode="&#xfb03;" horiz-adv-x="1786" d="M1391 950q37 22 76 33.5t77 11.5q46 0 63 -22.5t17 -83.5q0 -16 -9 -175t-9 -302q0 -134 13.5 -222t41.5 -145q-42 -23 -80 -34t-73 -11q-49 0 -66.5 26.5t-17.5 106.5q0 46 9 206t9 275q0 125 -12 203t-39 133zM1397 1278q0 56 40 95.5t97 39.5q52 0 85.5 -32t33.5 -81 q0 -57 -40 -95t-101 -38q-53 0 -84 30t-31 81zM690 874q0 15 5 31t14 31q10 0 25.5 -1t21.5 -1h78v22q0 246 92.5 377t265.5 131q69 0 111.5 -28.5t42.5 -73.5q0 -31 -23 -57t-65 -45q-23 27 -49 41t-54 14q-80 0 -116.5 -80.5t-36.5 -257.5v-33q35 4 80 6t94 2 q32 0 48.5 -15.5t16.5 -47.5q0 -11 -4.5 -26.5t-19.5 -49.5q-23 9 -59.5 12.5t-112.5 3.5q-18 0 -27.5 -0.5t-17.5 -1.5q0 -217 7 -447t7 -243q0 -81 -18 -109t-64 -28q-32 0 -69 12t-83 37q31 59 45.5 176t14.5 312q0 71 -4 246v36q-22 0 -51 -1t-37 -1q-28 0 -43 15 t-15 42zM55 874q0 15 5 31t14 31q10 0 25.5 -1t21.5 -1h78v22q0 246 92.5 377t265.5 131q69 0 111.5 -28.5t42.5 -73.5q0 -31 -23 -57t-65 -45q-23 27 -49 41t-54 14q-80 0 -116.5 -80.5t-36.5 -257.5v-33q35 4 80 6t94 2q32 0 48.5 -15.5t16.5 -47.5q0 -11 -4.5 -26.5 t-19.5 -49.5q-23 9 -59.5 12.5t-112.5 3.5q-18 0 -27.5 -0.5t-17.5 -1.5q0 -217 7 -447t7 -243q0 -81 -18 -109t-64 -28q-32 0 -69 12t-83 37q31 59 45.5 176t14.5 312q0 71 -4 246v36q-22 0 -51 -1t-37 -1q-28 0 -43 15t-15 42z" />
<glyph unicode="&#xfb04;" horiz-adv-x="1800" d="M1395 1425q40 23 77 34t70 11q50 0 68 -25t18 -102q0 -64 -11 -336t-11 -479q0 -222 12.5 -324t42.5 -159q-42 -23 -78.5 -34t-68.5 -11q-48 0 -66 27.5t-18 103.5q0 95 11 361.5t11 439.5q0 214 -13 324.5t-44 168.5zM690 874q0 15 5 31t14 31q10 0 25.5 -1t21.5 -1h78 v22q0 246 92.5 377t265.5 131q69 0 111.5 -28.5t42.5 -73.5q0 -31 -23 -57t-65 -45q-23 27 -49 41t-54 14q-80 0 -116.5 -80.5t-36.5 -257.5v-33q35 4 80 6t94 2q32 0 48.5 -15.5t16.5 -47.5q0 -11 -4.5 -26.5t-19.5 -49.5q-23 9 -59.5 12.5t-112.5 3.5q-18 0 -27.5 -0.5 t-17.5 -1.5q0 -217 7 -447t7 -243q0 -81 -18 -109t-64 -28q-32 0 -69 12t-83 37q31 59 45.5 176t14.5 312q0 71 -4 246v36q-22 0 -51 -1t-37 -1q-28 0 -43 15t-15 42zM55 874q0 15 5 31t14 31q10 0 25.5 -1t21.5 -1h78v22q0 246 92.5 377t265.5 131q69 0 111.5 -28.5 t42.5 -73.5q0 -31 -23 -57t-65 -45q-23 27 -49 41t-54 14q-80 0 -116.5 -80.5t-36.5 -257.5v-33q35 4 80 6t94 2q32 0 48.5 -15.5t16.5 -47.5q0 -11 -4.5 -26.5t-19.5 -49.5q-23 9 -59.5 12.5t-112.5 3.5q-18 0 -27.5 -0.5t-17.5 -1.5q0 -217 7 -447t7 -243q0 -81 -18 -109 t-64 -28q-32 0 -69 12t-83 37q31 59 45.5 176t14.5 312q0 71 -4 246v36q-22 0 -51 -1t-37 -1q-28 0 -43 15t-15 42z" />
</font>
</defs>
</svg>
